<?xml version="1.0" standalone="no"?>
<!DOCTYPE svg PUBLIC "-//W3C//DTD SVG 1.1//EN" "http://www.w3.org/Graphics/SVG/1.1/DTD/svg11.dtd" >
<svg xmlns="http://www.w3.org/2000/svg" xmlns:xlink="http://www.w3.org/1999/xlink" version="1.1">
<metadata>
Created by FontForge 20190801 at Thu Aug  2 15:57:12 2012
 By root
Copyright (c) 2010-2012 by The Entente (AS&#38;EH). Apercu Pro is a trademark of The Entente (AS&#38;EH). All rights reserved.
</metadata>
<defs>
<font id="ApercuPro-Light" horiz-adv-x="584" >
  <font-face 
    font-family="Apercu Pro Light"
    font-weight="300"
    font-stretch="normal"
    units-per-em="1000"
    panose-1="2 0 5 6 3 0 0 2 0 4"
    ascent="800"
    descent="-200"
    x-height="504"
    cap-height="700"
    bbox="-74 -217 2411 1098"
    underline-thickness="50"
    underline-position="-100"
    stemh="56"
    stemv="62"
    unicode-range="U+000D-FB02"
  />
<missing-glyph horiz-adv-x="619" 
d="M101 0v700h417v-700h-417zM454 642h-289v-584h289v584z" />
    <glyph glyph-name="fi" unicode="fi" horiz-adv-x="538" 
d="M50 446v58h80v16c0 121 90 188 196 188c40 0 80 -10 110 -29l-13 -57c-33 19 -67 28 -102 28c-77 0 -129 -49 -129 -120v-26h264v-504h-62v446h-202v-446h-62v446h-80z" />
    <glyph glyph-name="fl" unicode="fl" horiz-adv-x="581" 
d="M50 446v58h78v32c0 118 58 172 156 172h209v-708h-62v650h-152c-55 0 -89 -33 -89 -104v-42h122v-58h-122v-446h-62v446h-78z" />
    <glyph glyph-name=".notdef" horiz-adv-x="619" 
d="M101 0v700h417v-700h-417zM454 642h-289v-584h289v584z" />
    <glyph glyph-name=".null" horiz-adv-x="0" 
 />
    <glyph glyph-name=".null" horiz-adv-x="0" 
 />
    <glyph glyph-name="CR" unicode="&#xd;" horiz-adv-x="252" 
 />
    <glyph glyph-name="space" unicode=" " horiz-adv-x="252" 
 />
    <glyph glyph-name="numbersign" unicode="#" horiz-adv-x="717" 
d="M117 432v54h134l43 214h56l-43 -214h159l44 214h56l-44 -214h118v-54h-129l-33 -164h122v-54h-134l-43 -214h-56l43 214h-159l-44 -214h-56l44 214h-118v54h129l33 164h-122zM295 432l-33 -164h160l33 164h-160z" />
    <glyph glyph-name="dollar" unicode="$" horiz-adv-x="506" 
d="M418 600l-54 -34c-33 63 -73 80 -116 80c-65 0 -97 -53 -97 -102c0 -171 305 -116 305 -347c0 -115 -72 -192 -170 -205v-82h-60v82c-100 12 -163 89 -184 189l57 34c23 -83 60 -161 157 -161c75 0 131 47 131 141c0 174 -302 130 -302 341c0 95 63 160 141 170v84h60
v-85c73 -10 103 -53 132 -105z" />
    <glyph glyph-name="percent" unicode="%" horiz-adv-x="844" 
d="M62 548c0 89 66 160 157 160s157 -71 157 -160s-66 -160 -157 -160s-157 71 -157 160zM116 548c0 -60 39 -106 103 -106s103 46 103 106s-39 106 -103 106s-103 -46 -103 -106zM468 152c0 89 66 160 157 160s157 -71 157 -160s-66 -160 -157 -160s-157 71 -157 160z
M522 152c0 -60 39 -106 103 -106s103 46 103 106s-39 106 -103 106s-103 -46 -103 -106zM672 724l42 -33l-542 -715l-42 33z" />
    <glyph glyph-name="ampersand" unicode="&#x26;" horiz-adv-x="657" 
d="M283 -8c-120 0 -204 73 -204 202c0 115 77 184 139 216c-25 34 -66 89 -66 149c0 97 72 149 151 149c94 0 153 -58 153 -140c0 -87 -77 -141 -148 -178l163 -209c18 35 36 78 53 128l43 -50c-16 -45 -34 -89 -57 -128l103 -131h-72l-65 82c-44 -54 -105 -90 -193 -90z
M283 50c65 0 114 25 155 80l-184 235c-68 -37 -113 -90 -113 -173c0 -86 59 -142 142 -142zM303 654c-53 0 -89 -35 -89 -99c0 -35 31 -85 58 -120c79 39 122 74 122 128c0 49 -30 91 -91 91z" />
    <glyph glyph-name="quotesingle" unicode="'" horiz-adv-x="271" 
d="M112 480l-21 228h89l-21 -228h-47z" />
    <glyph glyph-name="parenleft" unicode="(" horiz-adv-x="281" 
d="M180 750h66c-66 -107 -106 -236 -106 -400s40 -293 106 -400h-66c-59 96 -109 224 -109 400s50 304 109 400z" />
    <glyph glyph-name="parenright" unicode=")" horiz-adv-x="281" 
d="M35 750h66c59 -96 109 -224 109 -400s-50 -304 -109 -400h-66c66 107 106 236 106 400s-40 293 -106 400z" />
    <glyph glyph-name="asterisk" unicode="*" horiz-adv-x="492" 
d="M274 708v-146l139 46l18 -54l-139 -47l86 -116l-46 -34l-86 117l-86 -117l-46 34l86 116l-139 47l18 54l139 -46v146h56z" />
    <glyph glyph-name="plus" unicode="+" horiz-adv-x="545" 
d="M479 344v-56h-177v-177h-56v177h-177v56h177v176h56v-176h177z" />
    <glyph glyph-name="comma" unicode="," horiz-adv-x="279" 
d="M66 -77l50 165h92l-96 -165h-46z" />
    <glyph glyph-name="period" unicode="." horiz-adv-x="284" 
d="M91 49c0 29 21 51 51 51c29 0 51 -22 51 -51c0 -30 -22 -51 -51 -51c-30 0 -51 21 -51 51z" />
    <glyph glyph-name="hyphen" unicode="-" horiz-adv-x="471" 
d="M71 289v56h329v-56h-329z" />
    <glyph glyph-name="slash" unicode="/" horiz-adv-x="527" 
d="M453 750h66l-436 -800h-66z" />
    <glyph glyph-name="zero" unicode="0" horiz-adv-x="616" 
d="M308 708c161 0 241 -144 241 -358s-80 -358 -241 -358s-241 144 -241 358s80 358 241 358zM308 652c-113 0 -177 -125 -177 -302s64 -302 177 -302s177 125 177 302s-64 302 -177 302z" />
    <glyph glyph-name="one" unicode="1" horiz-adv-x="346" 
d="M233 700h16v-700h-62v594l-116 -73v76z" />
    <glyph glyph-name="two" unicode="2" horiz-adv-x="569" 
d="M75 0v23l255 330c63 81 78 112 78 171c0 79 -47 128 -124 128c-73 0 -124 -60 -136 -141l-58 11c10 109 87 186 194 186c106 0 188 -65 188 -186c0 -68 -36 -126 -85 -189l-214 -277h316v-56h-414z" />
    <glyph glyph-name="three" unicode="3" horiz-adv-x="573" 
d="M63 192l62 9c10 -89 61 -153 153 -153c103 0 157 65 157 166c0 108 -58 167 -157 167c-21 0 -43 -6 -62 -18l-30 39l181 242h-269v56h366v-17l-189 -251c6 2 20 3 26 3c102 0 198 -79 198 -221c0 -131 -83 -222 -221 -222c-113 0 -202 71 -215 200z" />
    <glyph glyph-name="four" unicode="4" horiz-adv-x="582" 
d="M368 0v161h-309v17l295 522h76v-483h93v-56h-93v-161h-62zM147 217h221v395z" />
    <glyph glyph-name="five" unicode="5" horiz-adv-x="563" 
d="M72 184l61 11c11 -82 49 -147 144 -147c102 0 152 71 152 180c0 120 -57 180 -152 180c-65 0 -115 -44 -144 -94l-44 10l36 376h327v-56h-271l-25 -238c29 31 74 58 127 58c129 0 210 -90 210 -236c0 -138 -81 -236 -216 -236c-107 0 -189 62 -205 192z" />
    <glyph glyph-name="six" unicode="6" horiz-adv-x="574" 
d="M296 448c130 0 218 -100 218 -228s-88 -228 -218 -228s-218 100 -218 228c0 40 13 86 37 129l207 359h65l-156 -277c14 11 46 17 65 17zM296 392c-90 0 -154 -66 -154 -172c0 -100 64 -172 154 -172s154 72 154 172c0 106 -64 172 -154 172z" />
    <glyph glyph-name="seven" unicode="7" horiz-adv-x="478" 
d="M170 0h-65l268 644h-314v56h388v-20z" />
    <glyph glyph-name="eight" unicode="8" horiz-adv-x="578" 
d="M289 708c111 0 186 -75 186 -182c0 -73 -41 -124 -88 -149c63 -23 112 -94 112 -181c0 -134 -98 -204 -210 -204s-210 70 -210 204c0 87 49 158 112 181c-47 25 -88 76 -88 149c0 107 75 182 186 182zM289 344c-87 0 -146 -55 -146 -148s59 -148 146 -148
c88 0 146 55 146 148s-59 148 -146 148zM289 652c-74 0 -124 -49 -124 -126s50 -126 124 -126s124 49 124 126s-50 126 -124 126z" />
    <glyph glyph-name="nine" unicode="9" horiz-adv-x="567" 
d="M289 252c-130 0 -218 100 -218 228s88 228 218 228s218 -100 218 -228c0 -40 -13 -86 -37 -129l-207 -359h-65l156 277c-14 -11 -46 -17 -65 -17zM289 308c90 0 154 66 154 172c0 100 -64 172 -154 172s-154 -72 -154 -172c0 -106 64 -172 154 -172z" />
    <glyph glyph-name="colon" unicode=":" horiz-adv-x="298" 
d="M98 49c0 29 21 51 51 51c29 0 51 -22 51 -51c0 -30 -22 -51 -51 -51c-30 0 -51 21 -51 51zM98 415c0 29 21 51 51 51c29 0 51 -22 51 -51c0 -30 -22 -51 -51 -51c-30 0 -51 21 -51 51z" />
    <glyph glyph-name="semicolon" unicode=";" horiz-adv-x="298" 
d="M98 415c0 29 21 51 51 51c29 0 51 -22 51 -51c0 -30 -22 -51 -51 -51c-30 0 -51 21 -51 51zM61 -77l50 165h92l-96 -165h-46z" />
    <glyph glyph-name="less" unicode="&#x3c;" horiz-adv-x="452" 
d="M56 276v68l334 180v-62l-283 -152l283 -152v-62z" />
    <glyph glyph-name="equal" unicode="=" horiz-adv-x="591" 
d="M102 365v56h387v-56h-387zM102 199v56h387v-56h-387z" />
    <glyph glyph-name="greater" unicode="&#x3e;" horiz-adv-x="452" 
d="M396 344v-68l-334 -180v62l283 152l-283 152v62z" />
    <glyph glyph-name="question" unicode="?" horiz-adv-x="438" 
d="M353 302c-20 -72 -64 -105 -127 -105c-64 0 -124 37 -124 121c0 54 29 96 88 128l82 45c34 18 52 39 52 74c0 53 -35 85 -98 85c-60 0 -96 -34 -113 -102l-63 11c16 90 77 149 183 149c91 0 155 -57 155 -140c0 -52 -26 -91 -87 -124l-72 -39c-46 -25 -65 -49 -65 -89
c0 -37 22 -61 60 -61c40 0 64 18 79 66zM173 53c0 32 23 55 55 55s55 -23 55 -55s-23 -55 -55 -55s-55 23 -55 55z" />
    <glyph glyph-name="at" unicode="@" horiz-adv-x="862" 
d="M559 509h54l-24 -265c-1 -11 -2 -19 -2 -23c0 -42 22 -57 55 -57c69 0 102 78 102 188c0 195 -109 310 -303 310c-163 0 -325 -130 -325 -361c0 -217 143 -339 324 -339c85 0 153 16 246 69l22 -50c-101 -54 -165 -75 -268 -75c-219 0 -389 146 -389 395
c0 279 195 417 395 417c211 0 363 -125 363 -366c0 -172 -80 -244 -171 -244c-60 0 -97 40 -108 78c-29 -44 -71 -78 -135 -78c-110 0 -169 77 -169 187c0 124 86 221 207 221c50 0 93 -24 112 -63zM426 460c-83 0 -134 -75 -134 -168c0 -85 43 -128 110 -128
c84 0 131 82 131 168c0 77 -37 128 -107 128z" />
    <glyph glyph-name="A" unicode="A" 
d="M263 700h58l253 -700h-68l-70 199h-288l-70 -199h-68zM292 610l-123 -349h246z" />
    <glyph glyph-name="B" unicode="B" horiz-adv-x="616" 
d="M101 700h225c123 0 195 -67 195 -180c0 -65 -43 -117 -88 -137c68 -24 124 -81 124 -181c0 -123 -83 -202 -215 -202h-241v700zM167 342v-280h162c101 0 159 37 159 140s-58 140 -159 140h-162zM326 638h-159v-234h159c81 0 127 38 127 117s-46 117 -127 117z" />
    <glyph glyph-name="C" unicode="C" horiz-adv-x="680" 
d="M567 211l65 -19c-35 -122 -130 -200 -264 -200c-158 0 -309 115 -309 358s152 358 309 358c134 0 229 -78 264 -200l-65 -19c-26 97 -92 157 -199 157c-140 0 -240 -105 -240 -296s100 -296 240 -296c107 0 173 60 199 157z" />
    <glyph glyph-name="D" unicode="D" horiz-adv-x="662" 
d="M101 700h184c180 0 318 -131 318 -350s-138 -350 -318 -350h-184v700zM286 638h-119v-576h119c129 0 248 87 248 288s-119 288 -248 288z" />
    <glyph glyph-name="E" unicode="E" horiz-adv-x="568" 
d="M101 700h395v-62h-329v-234h269v-62h-269v-280h339v-62h-405v700z" />
    <glyph glyph-name="F" unicode="F" horiz-adv-x="563" 
d="M101 700h402v-62h-336v-242h276v-62h-276v-334h-66v700z" />
    <glyph glyph-name="G" unicode="G" horiz-adv-x="708" 
d="M582 0l-8 108c-37 -71 -115 -116 -208 -116c-158 0 -307 119 -307 358s149 358 307 358c140 0 236 -79 270 -204l-65 -18c-31 101 -102 160 -205 160c-138 0 -238 -104 -238 -296s100 -296 238 -296c133 0 206 82 208 237h-162v62h228v-353h-58z" />
    <glyph glyph-name="H" unicode="H" horiz-adv-x="690" 
d="M523 700h66v-700h-66v341h-356v-341h-66v700h66v-297h356v297z" />
    <glyph glyph-name="I" unicode="I" horiz-adv-x="268" 
d="M167 700v-700h-66v700h66z" />
    <glyph glyph-name="J" unicode="J" horiz-adv-x="497" 
d="M344 198v502h66v-495c0 -140 -94 -213 -197 -213c-125 0 -185 87 -198 179l68 15c11 -79 52 -132 130 -132c73 0 131 44 131 144z" />
    <glyph glyph-name="K" unicode="K" horiz-adv-x="565" 
d="M549 0h-81l-301 371v-371h-66v700h66v-299l273 299h84l-287 -314z" />
    <glyph glyph-name="L" unicode="L" horiz-adv-x="515" 
d="M101 700h66v-638h328v-62h-394v700z" />
    <glyph glyph-name="M" unicode="M" horiz-adv-x="782" 
d="M101 700h82l208 -527l208 527h82v-700h-66v572l-203 -508h-42l-203 508v-572h-66v700z" />
    <glyph glyph-name="N" unicode="N" horiz-adv-x="693" 
d="M526 700h66v-700h-78l-347 593v-593h-66v700h78l347 -595v595z" />
    <glyph glyph-name="O" unicode="O" horiz-adv-x="732" 
d="M366 708c164 0 307 -136 307 -358s-143 -358 -307 -358s-307 136 -307 358s143 358 307 358zM366 646c-131 0 -238 -100 -238 -296s107 -296 238 -296s238 100 238 296s-107 296 -238 296z" />
    <glyph glyph-name="P" unicode="P" horiz-adv-x="578" 
d="M339 314h-172v-314h-66v700h238c125 0 202 -72 202 -193s-77 -193 -202 -193zM340 376c96 0 132 57 132 131s-36 131 -132 131h-173v-262h173z" />
    <glyph glyph-name="Q" unicode="Q" horiz-adv-x="732" 
d="M366 708c164 0 307 -136 307 -358c0 -102 -30 -186 -79 -247l67 -66l-45 -45l-66 66c-52 -43 -117 -66 -184 -66c-164 0 -307 136 -307 358s143 358 307 358zM432 176l45 45l72 -73c34 49 55 116 55 202c0 196 -107 296 -238 296s-238 -100 -238 -296s107 -296 238 -296
c52 0 101 16 140 47z" />
    <glyph glyph-name="R" unicode="R" horiz-adv-x="636" 
d="M517 0l-219 346h-131v-346h-66v700h225c124 0 200 -58 200 -177c0 -103 -57 -161 -153 -174l218 -349h-74zM322 638h-155v-230h155c90 0 137 35 137 115s-47 115 -137 115z" />
    <glyph glyph-name="S" unicode="S" horiz-adv-x="506" 
d="M418 600l-54 -34c-33 63 -73 80 -116 80c-65 0 -97 -53 -97 -102c0 -171 305 -116 305 -347c0 -126 -87 -205 -200 -205c-117 0 -191 80 -214 189l57 34c23 -83 60 -161 157 -161c75 0 131 47 131 141c0 174 -302 130 -302 341c0 104 75 172 163 172
c102 0 137 -48 170 -108z" />
    <glyph glyph-name="T" unicode="T" horiz-adv-x="516" 
d="M16 638v62h484v-62h-209v-638h-66v638h-209z" />
    <glyph glyph-name="U" unicode="U" horiz-adv-x="654" 
d="M87 224v476h66v-482c0 -87 57 -164 174 -164s174 77 174 164v482h66v-476c0 -154 -113 -232 -240 -232s-240 78 -240 232z" />
    <glyph glyph-name="V" unicode="V" horiz-adv-x="574" 
d="M499 700h68l-245 -700h-70l-245 700h68l212 -606z" />
    <glyph glyph-name="W" unicode="W" horiz-adv-x="899" 
d="M799 700h68l-192 -700h-67l-159 524l-158 -524h-67l-192 700h68l159 -598l161 524h59l161 -524z" />
    <glyph glyph-name="X" unicode="X" horiz-adv-x="566" 
d="M433 700h69l-185 -314l228 -386h-69l-193 328l-193 -328h-69l228 386l-185 314h69l150 -255z" />
    <glyph glyph-name="Y" unicode="Y" horiz-adv-x="500" 
d="M217 304l-211 396h77l167 -331l167 331h77l-211 -396v-304h-66v304z" />
    <glyph glyph-name="Z" unicode="Z" horiz-adv-x="548" 
d="M60 638v62h428v-32l-348 -606h355v-62h-447v32l352 606h-340z" />
    <glyph glyph-name="bracketleft" unicode="[" horiz-adv-x="322" 
d="M101 -50v800h179v-56h-119v-688h119v-56h-179z" />
    <glyph glyph-name="backslash" unicode="\" horiz-adv-x="527" 
d="M8 750h66l436 -800h-66z" />
    <glyph glyph-name="bracketright" unicode="]" horiz-adv-x="322" 
d="M221 750v-800h-179v56h119v688h-119v56h179z" />
    <glyph glyph-name="asciicircum" unicode="^" horiz-adv-x="520" 
d="M236 700h48l184 -271h-69l-139 213l-139 -213h-69z" />
    <glyph glyph-name="underscore" unicode="_" horiz-adv-x="475" 
d="M33 -56v56h409v-56h-409z" />
    <glyph glyph-name="grave" unicode="`" horiz-adv-x="209" 
d="M114 700l70 -140h-49l-114 140h93z" />
    <glyph glyph-name="a" unicode="a" horiz-adv-x="506" 
d="M122 145c0 -62 38 -95 98 -95c65 0 153 47 153 183v19h-82c-115 0 -169 -41 -169 -107zM435 334v-334h-47l-15 78c-28 -49 -79 -86 -159 -86c-84 0 -157 42 -157 153c0 112 91 165 232 165h84v22c0 88 -49 122 -116 122c-69 0 -105 -43 -120 -94l-60 14
c14 85 90 138 180 138c99 0 178 -64 178 -178z" />
    <glyph glyph-name="b" unicode="b" horiz-adv-x="598" 
d="M96 708h62v-275c37 48 105 79 159 79c147 0 225 -116 225 -260s-78 -260 -225 -260c-66 0 -133 35 -159 74v-66h-62v708zM477 252c0 112 -56 202 -163 202s-162 -90 -162 -202c0 -114 55 -202 162 -202s163 88 163 202z" />
    <glyph glyph-name="c" unicode="c" horiz-adv-x="528" 
d="M426 153l56 -22c-35 -91 -104 -139 -203 -139c-148 0 -223 128 -223 260s75 260 223 260c99 0 168 -48 203 -139l-56 -22c-27 66 -72 103 -147 103c-108 0 -158 -93 -158 -202s50 -202 158 -202c75 0 120 37 147 103z" />
    <glyph glyph-name="d" unicode="d" horiz-adv-x="598" 
d="M440 708h62v-708h-62v66c-26 -39 -93 -74 -159 -74c-147 0 -225 116 -225 260s78 260 225 260c54 0 122 -31 159 -79v275zM121 252c0 -114 56 -202 163 -202s162 88 162 202c0 112 -55 202 -162 202s-163 -90 -163 -202z" />
    <glyph glyph-name="e" unicode="e" horiz-adv-x="552" 
d="M501 280v-28h-380c0 -118 58 -202 159 -202c77 0 118 33 155 108l55 -27c-52 -103 -117 -139 -210 -139c-134 0 -224 110 -224 260s90 260 224 260c130 0 221 -93 221 -232zM280 454c-84 0 -138 -62 -155 -144h312c-12 87 -66 144 -157 144z" />
    <glyph glyph-name="f" unicode="f" horiz-adv-x="359" 
d="M50 446v58h80v32c0 118 58 172 156 172c25 0 47 -6 60 -13l-13 -57c-13 6 -28 12 -52 12c-55 0 -89 -33 -89 -104v-42h122v-58h-122v-446h-62v446h-80z" />
    <glyph glyph-name="g" unicode="g" horiz-adv-x="491" 
d="M91 343c0 102 75 169 171 169c32 0 62 -9 87 -23l90 51l29 -53l-70 -39c22 -28 35 -63 35 -105c0 -103 -75 -169 -171 -169c-35 0 -67 8 -94 24c-30 -13 -41 -32 -41 -56c0 -36 30 -48 62 -48h130c87 0 151 -39 151 -132c0 -124 -90 -174 -207 -174
c-128 0 -208 62 -208 166c0 49 24 85 52 106c-25 15 -40 41 -40 82c0 42 27 74 62 90c-23 28 -38 67 -38 111zM312 40h-103c-18 0 -34 1 -49 3c-34 -22 -45 -57 -45 -91c0 -65 48 -108 148 -108c99 0 147 48 147 110c0 63 -39 86 -98 86zM153 343c0 -73 51 -115 109 -115
s109 42 109 115s-51 115 -109 115s-109 -42 -109 -115z" />
    <glyph glyph-name="h" unicode="h" horiz-adv-x="585" 
d="M495 346v-346h-62v338c0 73 -36 116 -105 116c-92 0 -170 -93 -170 -239v-215h-62v708h62v-314c35 81 111 118 180 118c99 0 157 -60 157 -166z" />
    <glyph glyph-name="i" unicode="i" horiz-adv-x="280" 
d="M90 649c0 29 22 51 51 51s51 -22 51 -51s-22 -51 -51 -51s-51 22 -51 51zM110 504h62v-504h-62v504z" />
    <glyph glyph-name="j" unicode="j" horiz-adv-x="280" 
d="M110 504h62v-568c0 -89 -45 -135 -125 -148l-14 58c53 15 77 38 77 99v559zM90 649c0 29 22 51 51 51s51 -22 51 -51s-22 -51 -51 -51s-51 22 -51 51z" />
    <glyph glyph-name="k" unicode="k" horiz-adv-x="482" 
d="M96 708h62v-427l211 223h78l-218 -231l236 -273h-79l-228 265v-265h-62v708z" />
    <glyph glyph-name="l" unicode="l" horiz-adv-x="244" 
d="M94 708h62v-708h-62v708z" />
    <glyph glyph-name="m" unicode="m" horiz-adv-x="852" 
d="M762 346v-346h-62v338c0 75 -20 116 -90 116c-82 0 -150 -90 -150 -233v-221h-62v338c0 75 -20 116 -90 116c-82 0 -150 -90 -150 -233v-221h-62v504h62v-105c31 66 87 113 160 113c77 0 122 -40 137 -112c33 64 96 112 165 112c99 0 142 -56 142 -166z" />
    <glyph glyph-name="n" unicode="n" horiz-adv-x="543" 
d="M453 346v-346h-62v338c0 73 -33 116 -103 116c-92 0 -163 -90 -163 -233v-221h-62v504h62v-105c34 66 100 113 173 113c95 0 155 -60 155 -166z" />
    <glyph glyph-name="o" unicode="o" 
d="M56 252c0 132 89 260 236 260s236 -128 236 -260s-89 -260 -236 -260s-236 128 -236 260zM121 252c0 -101 58 -202 171 -202s171 101 171 202s-58 202 -171 202s-171 -101 -171 -202z" />
    <glyph glyph-name="p" unicode="p" horiz-adv-x="598" 
d="M158 -204h-62v708h62v-66c26 39 93 74 159 74c147 0 225 -116 225 -260s-78 -260 -225 -260c-54 0 -122 31 -159 79v-275zM477 252c0 114 -56 202 -163 202s-162 -88 -162 -202c0 -112 55 -202 162 -202s163 90 163 202z" />
    <glyph glyph-name="q" unicode="q" horiz-adv-x="598" 
d="M502 -204h-62v275c-37 -48 -105 -79 -159 -79c-147 0 -225 116 -225 260s78 260 225 260c66 0 133 -35 159 -74v66h62v-708zM121 252c0 -112 56 -202 163 -202s162 90 162 202c0 114 -55 202 -162 202s-163 -88 -163 -202z" />
    <glyph glyph-name="r" unicode="r" horiz-adv-x="399" 
d="M382 495l-14 -59c-22 12 -45 18 -71 18c-77 0 -139 -87 -139 -259v-195h-62v504h62v-90c30 62 80 98 148 98c29 0 51 -7 76 -17z" />
    <glyph glyph-name="s" unicode="s" horiz-adv-x="450" 
d="M230 512c64 0 106 -30 140 -78l-44 -38c-31 41 -59 58 -99 58c-43 0 -74 -30 -74 -76c0 -102 239 -82 239 -228c0 -97 -60 -158 -156 -158c-107 0 -162 72 -182 138l55 29c22 -61 53 -109 127 -109c59 0 91 35 91 90c0 115 -238 79 -238 237c0 81 61 135 141 135z" />
    <glyph glyph-name="t" unicode="t" horiz-adv-x="371" 
d="M27 446v58h89v163l62 41v-204h136v-58h-136v-313c0 -57 29 -83 72 -83c20 0 44 4 63 16l17 -56c-24 -13 -57 -18 -88 -18c-73 0 -126 45 -126 151v303h-89z" />
    <glyph glyph-name="u" unicode="u" horiz-adv-x="576" 
d="M90 158v346h62v-338c0 -73 33 -116 103 -116c92 0 163 90 163 233v221h62v-504h-62v105c-34 -66 -100 -113 -173 -113c-95 0 -155 60 -155 166z" />
    <glyph glyph-name="v" unicode="v" horiz-adv-x="448" 
d="M363 504h65l-170 -504h-68l-170 504h65l139 -421z" />
    <glyph glyph-name="w" unicode="w" horiz-adv-x="718" 
d="M614 504h65l-151 -504h-64l-105 412l-105 -412h-64l-151 504h65l118 -416l106 416h62l106 -416z" />
    <glyph glyph-name="x" unicode="x" horiz-adv-x="446" 
d="M47 504h69l107 -174l107 174h69l-142 -229l170 -275h-65l-139 220l-139 -220h-65l170 275z" />
    <glyph glyph-name="y" unicode="y" horiz-adv-x="452" 
d="M372 504h65l-250 -708h-62l73 207l-181 501h65l150 -408z" />
    <glyph glyph-name="z" unicode="z" horiz-adv-x="456" 
d="M68 446v58h327v-34l-254 -412h265v-58h-350v30l257 416h-245z" />
    <glyph glyph-name="braceleft" unicode="{" horiz-adv-x="317" 
d="M144 237c0 60 -22 85 -79 85v56c57 0 79 25 79 85v183c0 65 39 104 94 104h46v-56h-30c-35 0 -50 -15 -50 -50v-197c0 -61 -25 -83 -63 -97c38 -14 63 -36 63 -97v-197c0 -35 15 -50 50 -50h30v-56h-46c-55 0 -94 39 -94 104v183z" />
    <glyph glyph-name="bar" unicode="|" horiz-adv-x="262" 
d="M101 750h60v-800h-60v800z" />
    <glyph glyph-name="braceright" unicode="}" horiz-adv-x="317" 
d="M173 237v-183c0 -65 -39 -104 -94 -104h-46v56h30c35 0 50 15 50 50v197c0 61 25 83 63 97c-38 14 -63 36 -63 97v197c0 35 -15 50 -50 50h-30v56h46c55 0 94 -39 94 -104v-183c0 -60 22 -85 79 -85v-56c-57 0 -79 -25 -79 -85z" />
    <glyph glyph-name="asciitilde" unicode="~" horiz-adv-x="602" 
d="M125 281l-40 39c30 42 74 78 122 78c78 0 105 -54 180 -54c35 0 67 17 90 45l40 -39c-30 -42 -74 -78 -122 -78c-78 0 -105 54 -180 54c-35 0 -67 -17 -90 -45z" />
    <glyph glyph-name="exclamdown" unicode="&#xa1;" horiz-adv-x="325" 
d="M202 -206h-84l22 516h40zM105 441c0 32 23 55 55 55s55 -23 55 -55s-23 -55 -55 -55s-55 23 -55 55z" />
    <glyph glyph-name="cent" unicode="&#xa2;" horiz-adv-x="548" 
d="M431 251l56 -22c-31 -81 -89 -128 -171 -138v-141h-60v141c-130 15 -195 135 -195 259c0 123 65 244 195 259v141h60v-141c82 -9 140 -57 171 -138l-56 -22c-27 66 -72 103 -147 103c-108 0 -158 -93 -158 -202s50 -202 158 -202c75 0 120 37 147 103z" />
    <glyph glyph-name="sterling" unicode="&#xa3;" horiz-adv-x="530" 
d="M61 335v58h63c-13 34 -25 69 -25 114c0 127 75 201 184 201c90 0 153 -55 185 -141l-55 -25c-31 70 -66 108 -130 108c-70 0 -120 -50 -120 -144c0 -45 12 -80 23 -113h164v-58h-146c6 -24 10 -49 10 -78c0 -65 -36 -146 -80 -185c27 15 60 22 85 22c65 0 95 -48 138 -48
c46 0 65 20 101 84l47 -27c-43 -81 -81 -111 -146 -111c-75 0 -95 46 -154 46c-48 0 -75 -19 -108 -46l-49 55c76 73 110 138 110 212c0 28 -5 52 -13 76h-84z" />
    <glyph glyph-name="currency" unicode="&#xa4;" horiz-adv-x="546" 
d="M29 118l87 67c-24 34 -38 76 -38 122s14 88 38 122l-87 67l55 55l66 -85c33 27 75 43 123 43s90 -16 123 -43l66 85l55 -55l-87 -67c24 -34 38 -76 38 -122s-14 -88 -38 -122l87 -67l-55 -55l-66 85c-33 -27 -75 -43 -123 -43s-90 16 -123 43l-66 -85zM134 307
c0 -87 55 -148 139 -148s139 61 139 148s-55 148 -139 148s-139 -61 -139 -148z" />
    <glyph glyph-name="yen" unicode="&#xa5;" horiz-adv-x="500" 
d="M13 700h77l160 -329l160 329h77l-175 -340h132v-56h-161v-87h161v-56h-161v-161h-66v161h-161v56h161v87h-161v56h132z" />
    <glyph glyph-name="brokenbar" unicode="&#xa6;" horiz-adv-x="262" 
d="M101 299h60v-349h-60v349zM161 401h-60v349h60v-349z" />
    <glyph glyph-name="section" unicode="&#xa7;" horiz-adv-x="535" 
d="M470 212c0 -52 -27 -95 -81 -129c28 -28 49 -61 49 -114c0 -118 -81 -181 -169 -181c-96 0 -158 51 -181 146l56 19c18 -61 57 -107 125 -107c58 0 105 40 105 121c0 84 -93 107 -205 170c-66 37 -101 74 -101 147c0 52 27 95 81 129c-28 28 -49 61 -49 114
c0 118 81 181 169 181c96 0 158 -51 181 -146l-56 -19c-18 61 -57 107 -125 107c-58 0 -105 -40 -105 -121c0 -84 93 -107 205 -170c66 -37 101 -74 101 -147zM339 121c44 21 71 53 71 92c0 71 -97 107 -211 162c-44 -21 -71 -53 -71 -92c0 -71 97 -107 211 -162z" />
    <glyph glyph-name="dieresis" unicode="&#xa8;" horiz-adv-x="294" 
d="M21 650c0 28 21 50 49 50s49 -22 49 -50c0 -27 -21 -48 -49 -48s-49 21 -49 48zM175 650c0 28 22 50 48 50c28 0 50 -22 50 -50c0 -27 -22 -48 -50 -48c-26 0 -48 21 -48 48z" />
    <glyph glyph-name="copyright" unicode="&#xa9;" horiz-adv-x="902" 
d="M75 350c0 222 158 390 376 390s376 -168 376 -390s-158 -390 -376 -390s-376 168 -376 390zM137 350c0 -184 125 -328 314 -328s314 144 314 328s-125 328 -314 328s-314 -144 -314 -328zM565 280l53 -14c-21 -85 -86 -132 -167 -132c-84 0 -195 61 -195 216
s111 216 195 216c81 0 146 -47 167 -132l-53 -14c-19 58 -51 92 -114 92c-76 0 -136 -52 -136 -162s60 -162 136 -162c63 0 95 34 114 92z" />
    <glyph glyph-name="ordfeminine" unicode="&#xaa;" horiz-adv-x="430" 
d="M363 564v-264h-37l-10 63c-22 -38 -64 -67 -127 -67c-66 0 -123 38 -123 120c0 88 71 130 182 130h66v17c0 69 -39 93 -91 93c-54 0 -81 -32 -93 -72l-48 12c14 70 70 108 141 108c80 0 140 -38 140 -140zM122 416c0 -49 29 -72 72 -72c51 0 120 34 120 141v15h-64
c-91 0 -128 -35 -128 -84z" />
    <glyph glyph-name="guillemotleft" unicode="&#xab;" horiz-adv-x="604" 
d="M50 289v42l263 195v-68l-198 -148l198 -148v-68zM281 289v42l263 195v-68l-198 -148l198 -148v-68z" />
    <glyph glyph-name="logicalnot" unicode="&#xac;" horiz-adv-x="573" 
d="M70 322v58h423v-238h-64v180h-359z" />
    <glyph glyph-name="registered" unicode="&#xae;" horiz-adv-x="902" 
d="M75 350c0 222 158 390 376 390s376 -168 376 -390s-158 -390 -376 -390s-376 168 -376 390zM137 350c0 -184 125 -328 314 -328s314 144 314 328s-125 328 -314 328s-314 -144 -314 -328zM561 137l-126 182h-61v-182h-59v426h144c83 0 133 -50 133 -122
c0 -62 -42 -107 -96 -118l127 -186h-62zM459 509h-85v-136h85c49 0 74 26 74 68c0 43 -25 68 -74 68z" />
    <glyph glyph-name="macron" unicode="&#xaf;" horiz-adv-x="271" 
d="M15 644v56h241v-56h-241z" />
    <glyph glyph-name="degree" unicode="&#xb0;" horiz-adv-x="352" 
d="M67 593c0 64 44 111 109 111s109 -47 109 -111s-44 -111 -109 -111s-109 47 -109 111zM115 593c0 -37 25 -63 61 -63s61 26 61 63s-25 63 -61 63s-61 -26 -61 -63z" />
    <glyph glyph-name="plusminus" unicode="&#xb1;" horiz-adv-x="541" 
d="M476 426v-56h-177v-177h-56v177h-177v56h177v176h56v-176h177zM66 0v56h410v-56h-410z" />
    <glyph glyph-name="twosuperior" unicode="&#xb2;" horiz-adv-x="381" 
d="M65 300v19l147 183c30 37 40 60 40 90c0 38 -21 62 -62 62c-38 0 -59 -33 -64 -76l-54 14c6 63 51 112 118 112c73 0 116 -47 116 -112c0 -37 -13 -72 -39 -105l-111 -137h160v-50h-251z" />
    <glyph glyph-name="threesuperior" unicode="&#xb3;" horiz-adv-x="385" 
d="M65 413l54 8c5 -45 30 -77 75 -77c50 0 72 37 72 84s-22 81 -72 81c-16 0 -27 -5 -35 -10l-26 35l89 118h-135v48h213v-17l-100 -135c3 1 15 2 18 2c58 0 102 -46 102 -122c0 -69 -40 -132 -126 -132c-69 0 -122 43 -129 117z" />
    <glyph glyph-name="acute" unicode="&#xb4;" horiz-adv-x="209" 
d="M25 560l70 140h93l-114 -140h-49z" />
    <glyph glyph-name="mu" unicode="&#xb5;" horiz-adv-x="576" 
d="M90 -204v708h62v-338c0 -73 33 -116 103 -116c92 0 163 90 163 233v221h62v-504h-62v105c-34 -66 -100 -113 -173 -113c-37 0 -68 9 -93 26v-222h-62z" />
    <glyph glyph-name="paragraph" unicode="&#xb6;" horiz-adv-x="651" 
d="M61 527c0 96 77 173 173 173h349v-62h-58v-842h-66v842h-159v-842h-66v558c-96 0 -173 77 -173 173z" />
    <glyph glyph-name="periodcentered" unicode="&#xb7;" horiz-adv-x="284" 
d="M91 349c0 29 21 51 51 51c29 0 51 -22 51 -51c0 -30 -22 -51 -51 -51c-30 0 -51 21 -51 51z" />
    <glyph glyph-name="cedilla" unicode="&#xb8;" horiz-adv-x="175" 
d="M164 -60l-81 -154l-72 31l98 123h55z" />
    <glyph glyph-name="onesuperior" unicode="&#xb9;" horiz-adv-x="284" 
d="M179 700h16v-400h-50v326l-85 -41v56z" />
    <glyph glyph-name="ordmasculine" unicode="&#xba;" horiz-adv-x="512" 
d="M71 500c0 103 70 204 185 204s185 -101 185 -204s-70 -204 -185 -204s-185 101 -185 204zM125 500c0 -79 43 -156 131 -156s131 77 131 156s-43 156 -131 156s-131 -77 -131 -156z" />
    <glyph glyph-name="guillemotright" unicode="&#xbb;" horiz-adv-x="604" 
d="M554 331v-42l-263 -195v68l198 148l-198 148v68zM323 331v-42l-263 -195v68l198 148l-198 148v68z" />
    <glyph glyph-name="onequarter" unicode="&#xbc;" horiz-adv-x="790" 
d="M637 724l42 -33l-542 -715l-42 33zM199 700h16v-400h-50v326l-85 -41v56zM599 0v83h-171v17l162 300h59v-269h52v-48h-52v-83h-50zM497 131h102v195z" />
    <glyph glyph-name="onehalf" unicode="&#xbd;" horiz-adv-x="857" 
d="M637 724l42 -33l-542 -715l-42 33zM199 700h16v-400h-50v326l-85 -41v56zM502 0v19l147 183c30 37 40 60 40 90c0 38 -21 62 -62 62c-38 0 -59 -33 -64 -76l-54 14c6 63 51 112 118 112c73 0 116 -47 116 -112c0 -37 -13 -72 -39 -105l-111 -137h160v-50h-251z" />
    <glyph glyph-name="threequarters" unicode="&#xbe;" horiz-adv-x="840" 
d="M709 724l42 -33l-542 -715l-42 33zM65 413l54 8c5 -45 30 -77 75 -77c50 0 72 37 72 84s-22 81 -72 81c-16 0 -27 -5 -35 -10l-26 35l89 118h-135v48h213v-17l-100 -135c3 1 15 2 18 2c58 0 102 -46 102 -122c0 -69 -40 -132 -126 -132c-69 0 -122 43 -129 117zM644 0v83
h-171v17l162 300h59v-269h52v-48h-52v-83h-50zM542 131h102v195z" />
    <glyph glyph-name="questiondown" unicode="&#xbf;" horiz-adv-x="438" 
d="M85 192c20 72 64 105 127 105c64 0 124 -37 124 -121c0 -54 -29 -96 -88 -128l-82 -45c-34 -18 -52 -39 -52 -74c0 -53 35 -85 98 -85c60 0 96 34 113 102l63 -11c-16 -90 -77 -149 -183 -149c-91 0 -155 57 -155 140c0 52 26 91 87 124l72 39c46 25 65 49 65 89
c0 37 -22 61 -60 61c-40 0 -64 -18 -79 -66zM265 441c0 -32 -23 -55 -55 -55s-55 23 -55 55s23 55 55 55s55 -23 55 -55z" />
    <glyph glyph-name="Agrave" unicode="&#xc0;" 
d="M263 700h58l253 -700h-68l-70 199h-288l-70 -199h-68zM292 610l-123 -349h246zM276 896l70 -140h-49l-114 140h93z" />
    <glyph glyph-name="Aacute" unicode="&#xc1;" 
d="M263 700h58l253 -700h-68l-70 199h-288l-70 -199h-68zM292 610l-123 -349h246zM236 756l70 140h93l-114 -140h-49z" />
    <glyph glyph-name="Acircumflex" unicode="&#xc2;" 
d="M263 700h58l253 -700h-68l-70 199h-288l-70 -199h-68zM292 610l-123 -349h246zM137 762l144 151h22l144 -151h-72l-83 89l-83 -89h-72z" />
    <glyph glyph-name="Atilde" unicode="&#xc3;" 
d="M263 700h58l253 -700h-68l-70 199h-288l-70 -199h-68zM292 610l-123 -349h246zM164 789l-40 31c23 42 59 69 99 69c67 0 83 -41 131 -41c30 0 49 14 67 36l40 -31c-23 -42 -59 -69 -99 -69c-67 0 -83 41 -131 41c-30 0 -49 -14 -67 -36z" />
    <glyph glyph-name="Adieresis" unicode="&#xc4;" 
d="M263 700h58l253 -700h-68l-70 199h-288l-70 -199h-68zM292 610l-123 -349h246zM166 846c0 28 21 50 49 50s49 -22 49 -50c0 -27 -21 -48 -49 -48s-49 21 -49 48zM320 846c0 28 22 50 48 50c28 0 50 -22 50 -50c0 -27 -22 -48 -50 -48c-26 0 -48 21 -48 48z" />
    <glyph glyph-name="Aring" unicode="&#xc5;" 
d="M263 700h58l253 -700h-68l-70 199h-288l-70 -199h-68zM292 610l-123 -349h246zM198 849c0 55 42 98 97 98c57 0 97 -43 97 -98c0 -53 -40 -94 -97 -94c-55 0 -97 41 -97 94zM244 850c0 -30 21 -52 51 -52c31 0 51 22 51 52c0 31 -20 54 -51 54c-30 0 -51 -23 -51 -54z
" />
    <glyph glyph-name="AE" unicode="&#xc6;" horiz-adv-x="821" 
d="M314 700h435v-62h-329v-234h269v-62h-269v-280h339v-62h-405v199h-191l-87 -199h-69zM343 610l-153 -349h164v349h-11z" />
    <glyph glyph-name="Ccedilla" unicode="&#xc7;" horiz-adv-x="680" 
d="M567 211l65 -19c-35 -122 -130 -200 -264 -200c-158 0 -309 115 -309 358s152 358 309 358c134 0 229 -78 264 -200l-65 -19c-26 97 -92 157 -199 157c-140 0 -240 -105 -240 -296s100 -296 240 -296c107 0 173 60 199 157zM425 -60l-81 -154l-72 31l98 123h55z" />
    <glyph glyph-name="Egrave" unicode="&#xc8;" horiz-adv-x="568" 
d="M101 700h395v-62h-329v-234h269v-62h-269v-280h339v-62h-405v700zM292 896l70 -140h-49l-114 140h93z" />
    <glyph glyph-name="Eacute" unicode="&#xc9;" horiz-adv-x="568" 
d="M101 700h395v-62h-329v-234h269v-62h-269v-280h339v-62h-405v700zM246 756l70 140h93l-114 -140h-49z" />
    <glyph glyph-name="Ecircumflex" unicode="&#xca;" horiz-adv-x="568" 
d="M101 700h395v-62h-329v-234h269v-62h-269v-280h339v-62h-405v700zM143 762l144 151h22l144 -151h-72l-83 89l-83 -89h-72z" />
    <glyph glyph-name="Edieresis" unicode="&#xcb;" horiz-adv-x="568" 
d="M101 700h395v-62h-329v-234h269v-62h-269v-280h339v-62h-405v700zM183 846c0 28 21 50 49 50s49 -22 49 -50c0 -27 -21 -48 -49 -48s-49 21 -49 48zM337 846c0 28 22 50 48 50c28 0 50 -22 50 -50c0 -27 -22 -48 -50 -48c-26 0 -48 21 -48 48z" />
    <glyph glyph-name="Igrave" unicode="&#xcc;" horiz-adv-x="268" 
d="M167 700v-700h-66v700h66zM118 896l70 -140h-49l-114 140h93z" />
    <glyph glyph-name="Iacute" unicode="&#xcd;" horiz-adv-x="268" 
d="M167 700v-700h-66v700h66zM85 756l70 140h93l-114 -140h-49z" />
    <glyph glyph-name="Icircumflex" unicode="&#xce;" horiz-adv-x="268" 
d="M167 700v-700h-66v700h66zM-21 762l144 151h22l144 -151h-72l-83 89l-83 -89h-72z" />
    <glyph glyph-name="Idieresis" unicode="&#xcf;" horiz-adv-x="268" 
d="M167 700v-700h-66v700h66zM8 846c0 28 21 50 49 50s49 -22 49 -50c0 -27 -21 -48 -49 -48s-49 21 -49 48zM162 846c0 28 22 50 48 50c28 0 50 -22 50 -50c0 -27 -22 -48 -50 -48c-26 0 -48 21 -48 48z" />
    <glyph glyph-name="Eth" unicode="&#xd0;" horiz-adv-x="687" 
d="M42 319v62h84v319h184c180 0 318 -131 318 -350s-138 -350 -318 -350h-184v319h-84zM311 638h-119v-257h84v-62h-84v-257h119c129 0 248 87 248 288s-119 288 -248 288z" />
    <glyph glyph-name="Ntilde" unicode="&#xd1;" horiz-adv-x="693" 
d="M526 700h66v-700h-78l-347 593v-593h-66v700h78l347 -595v595zM213 789l-40 31c23 42 59 69 99 69c67 0 83 -41 131 -41c30 0 49 14 67 36l40 -31c-23 -42 -59 -69 -99 -69c-67 0 -83 41 -131 41c-30 0 -49 -14 -67 -36z" />
    <glyph glyph-name="Ograve" unicode="&#xd2;" horiz-adv-x="732" 
d="M366 708c164 0 307 -136 307 -358s-143 -358 -307 -358s-307 136 -307 358s143 358 307 358zM366 646c-131 0 -238 -100 -238 -296s107 -296 238 -296s238 100 238 296s-107 296 -238 296zM340 896l70 -140h-49l-114 140h93z" />
    <glyph glyph-name="Oacute" unicode="&#xd3;" horiz-adv-x="732" 
d="M366 708c164 0 307 -136 307 -358s-143 -358 -307 -358s-307 136 -307 358s143 358 307 358zM366 646c-131 0 -238 -100 -238 -296s107 -296 238 -296s238 100 238 296s-107 296 -238 296zM287 756l70 140h93l-114 -140h-49z" />
    <glyph glyph-name="Ocircumflex" unicode="&#xd4;" horiz-adv-x="732" 
d="M366 708c164 0 307 -136 307 -358s-143 -358 -307 -358s-307 136 -307 358s143 358 307 358zM366 646c-131 0 -238 -100 -238 -296s107 -296 238 -296s238 100 238 296s-107 296 -238 296zM211 762l144 151h22l144 -151h-72l-83 89l-83 -89h-72z" />
    <glyph glyph-name="Otilde" unicode="&#xd5;" horiz-adv-x="732" 
d="M366 708c164 0 307 -136 307 -358s-143 -358 -307 -358s-307 136 -307 358s143 358 307 358zM366 646c-131 0 -238 -100 -238 -296s107 -296 238 -296s238 100 238 296s-107 296 -238 296zM238 789l-40 31c23 42 59 69 99 69c67 0 83 -41 131 -41c30 0 49 14 67 36
l40 -31c-23 -42 -59 -69 -99 -69c-67 0 -83 41 -131 41c-30 0 -49 -14 -67 -36z" />
    <glyph glyph-name="Odieresis" unicode="&#xd6;" horiz-adv-x="732" 
d="M366 708c164 0 307 -136 307 -358s-143 -358 -307 -358s-307 136 -307 358s143 358 307 358zM366 646c-131 0 -238 -100 -238 -296s107 -296 238 -296s238 100 238 296s-107 296 -238 296zM240 846c0 28 21 50 49 50s49 -22 49 -50c0 -27 -21 -48 -49 -48s-49 21 -49 48z
M394 846c0 28 22 50 48 50c28 0 50 -22 50 -50c0 -27 -22 -48 -50 -48c-26 0 -48 21 -48 48z" />
    <glyph glyph-name="multiply" unicode="&#xd7;" horiz-adv-x="524" 
d="M455 162l-40 -39l-153 153l-154 -153l-39 39l153 154l-153 153l39 40l154 -154l152 153l40 -40l-153 -152z" />
    <glyph glyph-name="Oslash" unicode="&#xd8;" horiz-adv-x="732" 
d="M612 716l46 -35l-64 -83c49 -61 79 -145 79 -248c0 -222 -143 -358 -307 -358c-69 0 -135 24 -187 68l-59 -76l-46 35l64 83c-49 61 -79 145 -79 248c0 222 143 358 307 358c69 0 135 -24 187 -68zM366 646c-131 0 -238 -100 -238 -296c0 -83 19 -148 50 -196l337 437
c-41 37 -92 55 -149 55zM604 350c0 83 -19 148 -50 196l-337 -437c41 -37 92 -55 149 -55c131 0 238 100 238 296z" />
    <glyph glyph-name="Ugrave" unicode="&#xd9;" horiz-adv-x="654" 
d="M87 224v476h66v-482c0 -87 57 -164 174 -164s174 77 174 164v482h66v-476c0 -154 -113 -232 -240 -232s-240 78 -240 232zM308 896l70 -140h-49l-114 140h93z" />
    <glyph glyph-name="Uacute" unicode="&#xda;" horiz-adv-x="654" 
d="M87 224v476h66v-482c0 -87 57 -164 174 -164s174 77 174 164v482h66v-476c0 -154 -113 -232 -240 -232s-240 78 -240 232zM269 756l70 140h93l-114 -140h-49z" />
    <glyph glyph-name="Ucircumflex" unicode="&#xdb;" horiz-adv-x="654" 
d="M87 224v476h66v-482c0 -87 57 -164 174 -164s174 77 174 164v482h66v-476c0 -154 -113 -232 -240 -232s-240 78 -240 232zM171 762l144 151h22l144 -151h-72l-83 89l-83 -89h-72z" />
    <glyph glyph-name="Udieresis" unicode="&#xdc;" horiz-adv-x="654" 
d="M87 224v476h66v-482c0 -87 57 -164 174 -164s174 77 174 164v482h66v-476c0 -154 -113 -232 -240 -232s-240 78 -240 232zM201 846c0 28 21 50 49 50s49 -22 49 -50c0 -27 -21 -48 -49 -48s-49 21 -49 48zM355 846c0 28 22 50 48 50c28 0 50 -22 50 -50
c0 -27 -22 -48 -50 -48c-26 0 -48 21 -48 48z" />
    <glyph glyph-name="Yacute" unicode="&#xdd;" horiz-adv-x="500" 
d="M217 304l-211 396h77l167 -331l167 331h77l-211 -396v-304h-66v304zM188 756l70 140h93l-114 -140h-49z" />
    <glyph glyph-name="Thorn" unicode="&#xde;" horiz-adv-x="578" 
d="M339 157h-172v-157h-66v700h66v-157h172c125 0 202 -72 202 -193s-77 -193 -202 -193zM340 219c96 0 132 57 132 131s-36 131 -132 131h-173v-262h173z" />
    <glyph glyph-name="germandbls" unicode="&#xdf;" horiz-adv-x="557" 
d="M40 354v56h54v78c0 147 83 220 185 220c115 0 183 -74 183 -173c0 -76 -41 -136 -95 -149c67 -17 141 -76 141 -178c0 -141 -88 -216 -212 -216c-26 0 -60 4 -76 7v58c20 -4 40 -7 70 -7c102 0 154 58 154 152c0 104 -75 152 -173 152h-32v56h38c80 0 125 48 125 120
c0 75 -50 120 -123 120c-72 0 -121 -54 -121 -163v-487h-64v354h-54z" />
    <glyph glyph-name="agrave" unicode="&#xe0;" horiz-adv-x="506" 
d="M122 145c0 -62 38 -95 98 -95c65 0 153 47 153 183v19h-82c-115 0 -169 -41 -169 -107zM435 334v-334h-47l-15 78c-28 -49 -79 -86 -159 -86c-84 0 -157 42 -157 153c0 112 91 165 232 165h84v22c0 88 -49 122 -116 122c-69 0 -105 -43 -120 -94l-60 14
c14 85 90 138 180 138c99 0 178 -64 178 -178zM244 700l70 -140h-49l-114 140h93z" />
    <glyph glyph-name="aacute" unicode="&#xe1;" horiz-adv-x="506" 
d="M122 145c0 -62 38 -95 98 -95c65 0 153 47 153 183v19h-82c-115 0 -169 -41 -169 -107zM435 334v-334h-47l-15 78c-28 -49 -79 -86 -159 -86c-84 0 -157 42 -157 153c0 112 91 165 232 165h84v22c0 88 -49 122 -116 122c-69 0 -105 -43 -120 -94l-60 14
c14 85 90 138 180 138c99 0 178 -64 178 -178zM204 560l70 140h93l-114 -140h-49z" />
    <glyph glyph-name="acircumflex" unicode="&#xe2;" horiz-adv-x="506" 
d="M122 145c0 -62 38 -95 98 -95c65 0 153 47 153 183v19h-82c-115 0 -169 -41 -169 -107zM435 334v-334h-47l-15 78c-28 -49 -79 -86 -159 -86c-84 0 -157 42 -157 153c0 112 91 165 232 165h84v22c0 88 -49 122 -116 122c-69 0 -105 -43 -120 -94l-60 14
c14 85 90 138 180 138c99 0 178 -64 178 -178zM106 566l144 151h22l144 -151h-72l-83 89l-83 -89h-72z" />
    <glyph glyph-name="atilde" unicode="&#xe3;" horiz-adv-x="506" 
d="M122 145c0 -62 38 -95 98 -95c65 0 153 47 153 183v19h-82c-115 0 -169 -41 -169 -107zM435 334v-334h-47l-15 78c-28 -49 -79 -86 -159 -86c-84 0 -157 42 -157 153c0 112 91 165 232 165h84v22c0 88 -49 122 -116 122c-69 0 -105 -43 -120 -94l-60 14
c14 85 90 138 180 138c99 0 178 -64 178 -178zM133 593l-40 31c23 42 59 69 99 69c67 0 83 -41 131 -41c30 0 49 14 67 36l40 -31c-23 -42 -59 -69 -99 -69c-67 0 -83 41 -131 41c-30 0 -49 -14 -67 -36z" />
    <glyph glyph-name="adieresis" unicode="&#xe4;" horiz-adv-x="506" 
d="M122 145c0 -62 38 -95 98 -95c65 0 153 47 153 183v19h-82c-115 0 -169 -41 -169 -107zM435 334v-334h-47l-15 78c-28 -49 -79 -86 -159 -86c-84 0 -157 42 -157 153c0 112 91 165 232 165h84v22c0 88 -49 122 -116 122c-69 0 -105 -43 -120 -94l-60 14
c14 85 90 138 180 138c99 0 178 -64 178 -178zM134 650c0 28 21 50 49 50s49 -22 49 -50c0 -27 -21 -48 -49 -48s-49 21 -49 48zM288 650c0 28 22 50 48 50c28 0 50 -22 50 -50c0 -27 -22 -48 -50 -48c-26 0 -48 21 -48 48z" />
    <glyph glyph-name="aring" unicode="&#xe5;" horiz-adv-x="506" 
d="M122 145c0 -62 38 -95 98 -95c65 0 153 47 153 183v19h-82c-115 0 -169 -41 -169 -107zM435 334v-334h-47l-15 78c-28 -49 -79 -86 -159 -86c-84 0 -157 42 -157 153c0 112 91 165 232 165h84v22c0 88 -49 122 -116 122c-69 0 -105 -43 -120 -94l-60 14
c14 85 90 138 180 138c99 0 178 -64 178 -178zM160 653c0 55 42 98 97 98c57 0 97 -43 97 -98c0 -53 -40 -94 -97 -94c-55 0 -97 41 -97 94zM206 654c0 -30 21 -52 51 -52c31 0 51 22 51 52c0 31 -20 54 -51 54c-30 0 -51 -23 -51 -54z" />
    <glyph glyph-name="ae" unicode="&#xe6;" horiz-adv-x="869" 
d="M818 280v-28h-380c0 -118 58 -202 159 -202c77 0 122 35 154 104l56 -23c-52 -103 -117 -139 -210 -139c-91 0 -163 51 -195 127c-32 -88 -105 -127 -188 -127c-84 0 -157 42 -157 153c0 112 91 165 232 165h84v22c0 88 -49 122 -116 122c-69 0 -105 -43 -120 -94l-60 14
c14 85 90 138 180 138c75 0 137 -37 163 -97c39 60 101 97 177 97c130 0 221 -93 221 -232zM122 145c0 -62 38 -95 98 -95c65 0 153 47 153 183v19h-82c-115 0 -169 -41 -169 -107zM597 454c-84 0 -138 -62 -155 -144h312c-12 87 -66 144 -157 144z" />
    <glyph glyph-name="ccedilla" unicode="&#xe7;" horiz-adv-x="528" 
d="M426 153l56 -22c-35 -91 -104 -139 -203 -139c-148 0 -223 128 -223 260s75 260 223 260c99 0 168 -48 203 -139l-56 -22c-27 66 -72 103 -147 103c-108 0 -158 -93 -158 -202s50 -202 158 -202c75 0 120 37 147 103zM337 -60l-81 -154l-72 31l98 123h55z" />
    <glyph glyph-name="egrave" unicode="&#xe8;" horiz-adv-x="552" 
d="M501 280v-28h-380c0 -118 58 -202 159 -202c77 0 118 33 155 108l55 -27c-52 -103 -117 -139 -210 -139c-134 0 -224 110 -224 260s90 260 224 260c130 0 221 -93 221 -232zM280 454c-84 0 -138 -62 -155 -144h312c-12 87 -66 144 -157 144zM274 700l70 -140h-49
l-114 140h93z" />
    <glyph glyph-name="eacute" unicode="&#xe9;" horiz-adv-x="552" 
d="M501 280v-28h-380c0 -118 58 -202 159 -202c77 0 118 33 155 108l55 -27c-52 -103 -117 -139 -210 -139c-134 0 -224 110 -224 260s90 260 224 260c130 0 221 -93 221 -232zM280 454c-84 0 -138 -62 -155 -144h312c-12 87 -66 144 -157 144zM205 560l70 140h93l-114 -140
h-49z" />
    <glyph glyph-name="ecircumflex" unicode="&#xea;" horiz-adv-x="552" 
d="M501 280v-28h-380c0 -118 58 -202 159 -202c77 0 118 33 155 108l55 -27c-52 -103 -117 -139 -210 -139c-134 0 -224 110 -224 260s90 260 224 260c130 0 221 -93 221 -232zM280 454c-84 0 -138 -62 -155 -144h312c-12 87 -66 144 -157 144zM125 566l144 151h22l144 -151
h-72l-83 89l-83 -89h-72z" />
    <glyph glyph-name="edieresis" unicode="&#xeb;" horiz-adv-x="552" 
d="M501 280v-28h-380c0 -118 58 -202 159 -202c77 0 118 33 155 108l55 -27c-52 -103 -117 -139 -210 -139c-134 0 -224 110 -224 260s90 260 224 260c130 0 221 -93 221 -232zM280 454c-84 0 -138 -62 -155 -144h312c-12 87 -66 144 -157 144zM160 650c0 28 21 50 49 50
s49 -22 49 -50c0 -27 -21 -48 -49 -48s-49 21 -49 48zM314 650c0 28 22 50 48 50c28 0 50 -22 50 -50c0 -27 -22 -48 -50 -48c-26 0 -48 21 -48 48z" />
    <glyph glyph-name="igrave" unicode="&#xec;" horiz-adv-x="280" 
d="M110 504h62v-504h-62v504zM120 700l70 -140h-49l-114 140h93z" />
    <glyph glyph-name="iacute" unicode="&#xed;" horiz-adv-x="280" 
d="M110 504h62v-504h-62v504zM97 560l70 140h93l-114 -140h-49z" />
    <glyph glyph-name="icircumflex" unicode="&#xee;" horiz-adv-x="280" 
d="M110 504h62v-504h-62v504zM-15 566l144 151h22l144 -151h-72l-83 89l-83 -89h-72z" />
    <glyph glyph-name="idieresis" unicode="&#xef;" horiz-adv-x="280" 
d="M110 504h62v-504h-62v504zM16 650c0 28 21 50 49 50s49 -22 49 -50c0 -27 -21 -48 -49 -48s-49 21 -49 48zM170 650c0 28 22 50 48 50c28 0 50 -22 50 -50c0 -27 -22 -48 -50 -48c-26 0 -48 21 -48 48z" />
    <glyph glyph-name="eth" unicode="&#xf0;" horiz-adv-x="574" 
d="M245 551l-42 30l44 64c-28 18 -56 32 -81 42l29 43c29 -13 57 -27 82 -41l38 56l42 -30l-37 -54c136 -94 198 -225 198 -409c0 -132 -84 -260 -231 -260s-231 128 -231 260s84 260 231 260c53 0 105 -23 136 -57c-18 54 -72 114 -134 161zM121 252
c0 -101 53 -202 166 -202s166 101 166 202s-53 202 -166 202s-166 -101 -166 -202z" />
    <glyph glyph-name="ntilde" unicode="&#xf1;" horiz-adv-x="576" 
d="M486 346v-346h-62v338c0 73 -33 116 -103 116c-92 0 -163 -90 -163 -233v-221h-62v504h62v-105c34 66 100 113 173 113c95 0 155 -60 155 -166zM167 593l-40 31c23 42 59 69 99 69c67 0 83 -41 131 -41c30 0 49 14 67 36l40 -31c-23 -42 -59 -69 -99 -69
c-67 0 -83 41 -131 41c-30 0 -49 -14 -67 -36z" />
    <glyph glyph-name="ograve" unicode="&#xf2;" 
d="M56 252c0 132 89 260 236 260s236 -128 236 -260s-89 -260 -236 -260s-236 128 -236 260zM121 252c0 -101 58 -202 171 -202s171 101 171 202s-58 202 -171 202s-171 -101 -171 -202zM278 700l70 -140h-49l-114 140h93z" />
    <glyph glyph-name="oacute" unicode="&#xf3;" 
d="M56 252c0 132 89 260 236 260s236 -128 236 -260s-89 -260 -236 -260s-236 128 -236 260zM121 252c0 -101 58 -202 171 -202s171 101 171 202s-58 202 -171 202s-171 -101 -171 -202zM218 560l70 140h93l-114 -140h-49z" />
    <glyph glyph-name="ocircumflex" unicode="&#xf4;" 
d="M56 252c0 132 89 260 236 260s236 -128 236 -260s-89 -260 -236 -260s-236 128 -236 260zM121 252c0 -101 58 -202 171 -202s171 101 171 202s-58 202 -171 202s-171 -101 -171 -202zM137 566l144 151h22l144 -151h-72l-83 89l-83 -89h-72z" />
    <glyph glyph-name="otilde" unicode="&#xf5;" 
d="M56 252c0 132 89 260 236 260s236 -128 236 -260s-89 -260 -236 -260s-236 128 -236 260zM121 252c0 -101 58 -202 171 -202s171 101 171 202s-58 202 -171 202s-171 -101 -171 -202zM164 593l-40 31c23 42 59 69 99 69c67 0 83 -41 131 -41c30 0 49 14 67 36l40 -31
c-23 -42 -59 -69 -99 -69c-67 0 -83 41 -131 41c-30 0 -49 -14 -67 -36z" />
    <glyph glyph-name="odieresis" unicode="&#xf6;" 
d="M56 252c0 132 89 260 236 260s236 -128 236 -260s-89 -260 -236 -260s-236 128 -236 260zM121 252c0 -101 58 -202 171 -202s171 101 171 202s-58 202 -171 202s-171 -101 -171 -202zM166 650c0 28 21 50 49 50s49 -22 49 -50c0 -27 -21 -48 -49 -48s-49 21 -49 48z
M320 650c0 28 22 50 48 50c28 0 50 -22 50 -50c0 -27 -22 -48 -50 -48c-26 0 -48 21 -48 48z" />
    <glyph glyph-name="divide" unicode="&#xf7;" horiz-adv-x="510" 
d="M203 134c0 29 21 51 51 51c29 0 51 -22 51 -51c0 -30 -22 -51 -51 -51c-30 0 -51 21 -51 51zM203 500c0 29 21 51 51 51c29 0 51 -22 51 -51c0 -30 -22 -51 -51 -51c-30 0 -51 21 -51 51zM50 289v56h410v-56h-410z" />
    <glyph glyph-name="oslash" unicode="&#xf8;" 
d="M56 252c0 132 89 260 236 260c52 0 98 -16 134 -43l56 71l46 -35l-60 -76c39 -48 60 -112 60 -177c0 -132 -89 -260 -236 -260c-53 0 -98 16 -134 43l-56 -71l-46 35l60 76c-39 48 -60 112 -60 177zM463 252c0 45 -11 91 -34 127l-235 -297c26 -20 59 -32 98 -32
c113 0 171 101 171 202zM121 252c0 -45 11 -91 34 -127l235 297c-26 20 -59 32 -98 32c-113 0 -171 -101 -171 -202z" />
    <glyph glyph-name="ugrave" unicode="&#xf9;" horiz-adv-x="566" 
d="M90 158v346h62v-338c0 -73 33 -116 103 -116c92 0 163 90 163 233v221h62v-504h-62v105c-34 -66 -100 -113 -173 -113c-95 0 -155 60 -155 166zM285 700l70 -140h-49l-114 140h93z" />
    <glyph glyph-name="uacute" unicode="&#xfa;" horiz-adv-x="566" 
d="M90 158v346h62v-338c0 -73 33 -116 103 -116c92 0 163 90 163 233v221h62v-504h-62v105c-34 -66 -100 -113 -173 -113c-95 0 -155 60 -155 166zM216 560l70 140h93l-114 -140h-49z" />
    <glyph glyph-name="ucircumflex" unicode="&#xfb;" horiz-adv-x="566" 
d="M90 158v346h62v-338c0 -73 33 -116 103 -116c92 0 163 90 163 233v221h62v-504h-62v105c-34 -66 -100 -113 -173 -113c-95 0 -155 60 -155 166zM132 566l144 151h22l144 -151h-72l-83 89l-83 -89h-72z" />
    <glyph glyph-name="udieresis" unicode="&#xfc;" horiz-adv-x="566" 
d="M90 158v346h62v-338c0 -73 33 -116 103 -116c92 0 163 90 163 233v221h62v-504h-62v105c-34 -66 -100 -113 -173 -113c-95 0 -155 60 -155 166zM163 650c0 28 21 50 49 50s49 -22 49 -50c0 -27 -21 -48 -49 -48s-49 21 -49 48zM317 650c0 28 22 50 48 50
c28 0 50 -22 50 -50c0 -27 -22 -48 -50 -48c-26 0 -48 21 -48 48z" />
    <glyph glyph-name="yacute" unicode="&#xfd;" horiz-adv-x="452" 
d="M372 504h65l-250 -708h-62l73 207l-181 501h65l150 -408zM173 560l70 140h93l-114 -140h-49z" />
    <glyph glyph-name="thorn" unicode="&#xfe;" horiz-adv-x="599" 
d="M97 708h64v-275c37 48 103 79 157 79c147 0 225 -116 225 -260s-78 -260 -225 -260c-66 0 -131 35 -157 74v-270h-64v912zM478 252c0 112 -56 202 -163 202s-162 -90 -162 -202c0 -114 55 -202 162 -202s163 88 163 202z" />
    <glyph glyph-name="ydieresis" unicode="&#xff;" horiz-adv-x="452" 
d="M372 504h65l-250 -708h-62l73 207l-181 501h65l150 -408zM106 650c0 28 21 50 49 50s49 -22 49 -50c0 -27 -21 -48 -49 -48s-49 21 -49 48zM260 650c0 28 22 50 48 50c28 0 50 -22 50 -50c0 -27 -22 -48 -50 -48c-26 0 -48 21 -48 48z" />
    <glyph glyph-name="dotlessi" unicode="&#x131;" horiz-adv-x="280" 
d="M109 504h62v-504h-62v504z" />
    <glyph glyph-name="Lslash" unicode="&#x141;" horiz-adv-x="515" 
d="M101 700h66v-323l128 74l27 -47l-155 -89v-253h328v-62h-394v278l-72 -42l-24 47l96 57v360z" />
    <glyph glyph-name="lslash" unicode="&#x142;" horiz-adv-x="324" 
d="M51 274l-27 47l104 58v329h62v-295l77 43l27 -47l-104 -58v-351h-62v317z" />
    <glyph glyph-name="OE" unicode="&#x152;" horiz-adv-x="1074" 
d="M607 700h395v-62h-329v-234h269v-62h-269v-280h339v-62h-405v120c-57 -82 -146 -128 -241 -128c-164 0 -307 136 -307 358s143 358 307 358c95 0 184 -46 241 -128v120zM366 646c-131 0 -238 -100 -238 -296s107 -296 238 -296s238 100 238 296s-107 296 -238 296z" />
    <glyph glyph-name="oe" unicode="&#x153;" horiz-adv-x="959" 
d="M908 280v-28h-380v-9c3 -114 60 -193 159 -193c77 0 122 35 154 104l56 -23c-52 -103 -117 -139 -210 -139c-88 0 -157 47 -194 122c-39 -71 -108 -122 -201 -122c-147 0 -236 128 -236 260s89 260 236 260c93 0 162 -51 201 -122c37 75 106 122 194 122
c130 0 221 -93 221 -232zM121 252c0 -101 58 -202 171 -202s171 101 171 202s-58 202 -171 202s-171 -101 -171 -202zM687 454c-84 0 -137 -62 -154 -144h311c-12 87 -66 144 -157 144z" />
    <glyph glyph-name="Scaron" unicode="&#x160;" horiz-adv-x="506" 
d="M418 600l-54 -34c-33 63 -73 80 -116 80c-65 0 -97 -53 -97 -102c0 -171 305 -116 305 -347c0 -126 -87 -205 -200 -205c-117 0 -191 80 -214 189l57 34c23 -83 60 -161 157 -161c75 0 131 47 131 141c0 174 -302 130 -302 341c0 104 75 172 163 172
c102 0 137 -48 170 -108zM241 762l-144 151h72l83 -89l83 89h72l-144 -151h-22z" />
    <glyph glyph-name="scaron" unicode="&#x161;" horiz-adv-x="450" 
d="M230 512c64 0 106 -30 140 -78l-44 -38c-31 41 -59 58 -99 58c-43 0 -74 -30 -74 -76c0 -102 239 -82 239 -228c0 -97 -60 -158 -156 -158c-107 0 -162 72 -182 138l55 29c22 -61 53 -109 127 -109c59 0 91 35 91 90c0 115 -238 79 -238 237c0 81 61 135 141 135z
M219 566l-144 151h72l83 -89l83 89h72l-144 -151h-22z" />
    <glyph glyph-name="Ydieresis" unicode="&#x178;" horiz-adv-x="500" 
d="M217 304l-211 396h77l167 -331l167 331h77l-211 -396v-304h-66v304zM124 846c0 28 21 50 49 50s49 -22 49 -50c0 -27 -21 -48 -49 -48s-49 21 -49 48zM278 846c0 28 22 50 48 50c28 0 50 -22 50 -50c0 -27 -22 -48 -50 -48c-26 0 -48 21 -48 48z" />
    <glyph glyph-name="Zcaron" unicode="&#x17d;" horiz-adv-x="548" 
d="M60 638v62h428v-32l-348 -606h355v-62h-447v32l352 606h-340zM271 762l-144 151h72l83 -89l83 89h72l-144 -151h-22z" />
    <glyph glyph-name="zcaron" unicode="&#x17e;" horiz-adv-x="456" 
d="M68 446v58h327v-34l-254 -412h265v-58h-350v30l257 416h-245zM218 566l-144 151h72l83 -89l83 89h72l-144 -151h-22z" />
    <glyph glyph-name="florin" unicode="&#x192;" horiz-adv-x="468" 
d="M115 446l12 58h90l6 32c24 128 88 172 186 172c25 0 49 -6 61 -13l-24 -57c-15 8 -26 12 -50 12c-55 0 -95 -33 -109 -104l-8 -42h122l-12 -58h-122l-94 -486c-25 -129 -84 -172 -182 -172c-25 0 -53 6 -65 13l24 57c12 -6 26 -12 50 -12c64 0 95 33 109 104l96 496h-90z
" />
    <glyph glyph-name="circumflex" unicode="&#x2c6;" horiz-adv-x="370" 
d="M30 566l144 151h22l144 -151h-72l-83 89l-83 -89h-72z" />
    <glyph glyph-name="caron" unicode="&#x2c7;" horiz-adv-x="370" 
d="M174 566l-144 151h72l83 -89l83 89h72l-144 -151h-22z" />
    <glyph glyph-name="breve" unicode="&#x2d8;" horiz-adv-x="239" 
d="M170 700h51c0 -64 -38 -109 -105 -109c-65 0 -105 45 -105 109h51c0 -34 18 -59 54 -59c38 0 54 25 54 59z" />
    <glyph glyph-name="dotaccent" unicode="&#x2d9;" horiz-adv-x="250" 
d="M74 649c0 29 22 51 51 51s51 -22 51 -51s-22 -51 -51 -51s-51 22 -51 51z" />
    <glyph glyph-name="ring" unicode="&#x2da;" horiz-adv-x="234" 
d="M20 653c0 55 42 98 97 98c57 0 97 -43 97 -98c0 -53 -40 -94 -97 -94c-55 0 -97 41 -97 94zM66 654c0 -30 21 -52 51 -52c31 0 51 22 51 52c0 31 -20 54 -51 54c-30 0 -51 -23 -51 -54z" />
    <glyph glyph-name="ogonek" unicode="&#x2db;" horiz-adv-x="208" 
d="M69 0h55c-36 -33 -56 -55 -56 -80c0 -21 13 -33 33 -33c22 0 37 15 57 42l39 -31c-34 -45 -60 -67 -106 -67c-49 0 -79 31 -79 77c0 32 19 65 57 92z" />
    <glyph glyph-name="tilde" unicode="&#x2dc;" horiz-adv-x="377" 
d="M60 593l-40 31c23 42 59 69 99 69c67 0 83 -41 131 -41c30 0 49 14 67 36l40 -31c-23 -42 -59 -69 -99 -69c-67 0 -83 41 -131 41c-30 0 -49 -14 -67 -36z" />
    <glyph glyph-name="hungarumlaut" unicode="&#x2dd;" horiz-adv-x="357" 
d="M25 560l70 140h93l-114 -140h-49zM177 560l70 140h93l-114 -140h-49z" />
    <glyph glyph-name="Delta" unicode="&#x2206;" horiz-adv-x="654" 
d="M58 0v16l236 684h66l236 -684v-16h-538zM327 607l-187 -549h374z" />
    <glyph glyph-name="Omega" unicode="&#x2126;" horiz-adv-x="682" 
d="M80 0v56h138s-118 200 -118 384c0 156 92 268 241 268s241 -112 241 -268c0 -184 -118 -384 -118 -384h138v-56h-210v19s118 214 118 421c0 133 -70 212 -169 212s-169 -79 -169 -212c0 -207 118 -421 118 -421v-19h-210z" />
    <glyph glyph-name="endash" unicode="&#x2013;" horiz-adv-x="557" 
d="M72 289v56h409v-56h-409z" />
    <glyph glyph-name="emdash" unicode="&#x2014;" horiz-adv-x="762" 
d="M72 289v56h614v-56h-614z" />
    <glyph glyph-name="quoteleft" unicode="&#x2018;" horiz-adv-x="275" 
d="M163 708l61 -184h-49l-115 184h103z" />
    <glyph glyph-name="quoteright" unicode="&#x2019;" horiz-adv-x="275" 
d="M51 524l61 184h103l-115 -184h-49z" />
    <glyph glyph-name="quotesinglbase" unicode="&#x201a;" horiz-adv-x="275" 
d="M51 -14l61 184h103l-115 -184h-49z" />
    <glyph glyph-name="quotedblleft" unicode="&#x201c;" horiz-adv-x="418" 
d="M306 708l61 -184h-49l-115 184h103zM163 708l61 -184h-49l-115 184h103z" />
    <glyph glyph-name="quotedblright" unicode="&#x201d;" horiz-adv-x="418" 
d="M51 524l61 184h103l-115 -184h-49zM194 524l61 184h103l-115 -184h-49z" />
    <glyph glyph-name="quotedblbase" unicode="&#x201e;" horiz-adv-x="418" 
d="M51 -14l61 184h103l-115 -184h-49zM194 -14l61 184h103l-115 -184h-49z" />
    <glyph glyph-name="dagger" unicode="&#x2020;" horiz-adv-x="460" 
d="M65 448v56h135v246h60v-246h135v-56h-135v-498h-60v498h-135z" />
    <glyph glyph-name="daggerdbl" unicode="&#x2021;" horiz-adv-x="460" 
d="M65 448v56h135v246h60v-246h135v-56h-135v-196h135v-56h-135v-246h-60v246h-135v56h135v196h-135z" />
    <glyph glyph-name="bullet" unicode="&#x2022;" horiz-adv-x="304" 
d="M87 330c0 36 29 65 65 65s65 -29 65 -65s-29 -65 -65 -65s-65 29 -65 65z" />
    <glyph glyph-name="perthousand" unicode="&#x2030;" horiz-adv-x="1244" 
d="M62 548c0 89 66 160 157 160s157 -71 157 -160s-66 -160 -157 -160s-157 71 -157 160zM116 548c0 -60 39 -106 103 -106s103 46 103 106s-39 106 -103 106s-103 -46 -103 -106zM468 152c0 89 66 160 157 160s157 -71 157 -160s-66 -160 -157 -160s-157 71 -157 160z
M522 152c0 -60 39 -106 103 -106s103 46 103 106s-39 106 -103 106s-103 -46 -103 -106zM672 724l42 -33l-542 -715l-42 33zM868 152c0 89 66 160 157 160s157 -71 157 -160s-66 -160 -157 -160s-157 71 -157 160zM922 152c0 -60 39 -106 103 -106s103 46 103 106
s-39 106 -103 106s-103 -46 -103 -106z" />
    <glyph glyph-name="guilsinglleft" unicode="&#x2039;" horiz-adv-x="373" 
d="M50 289v42l263 195v-68l-198 -148l198 -148v-68z" />
    <glyph glyph-name="guilsinglright" unicode="&#x203a;" horiz-adv-x="373" 
d="M323 331v-42l-263 -195v68l198 148l-198 148v68z" />
    <glyph glyph-name="fraction" unicode="&#x2044;" horiz-adv-x="608" 
d="M554 724l42 -33l-542 -715l-42 33z" />
    <glyph glyph-name="Euro" unicode="&#x20ac;" horiz-adv-x="612" 
d="M35 395l29 56h54c21 150 110 257 259 257c90 0 148 -40 191 -116l-55 -30c-27 58 -77 90 -136 90c-104 0 -174 -72 -194 -201h258l-29 -56h-234v-90h263l-29 -56h-229c20 -129 90 -201 194 -201c59 0 109 32 136 90l55 -30c-43 -76 -101 -116 -191 -116
c-149 0 -238 107 -259 257h-83l29 56h50v90h-79z" />
    <glyph glyph-name="trademark" unicode="&#x2122;" horiz-adv-x="811" 
d="M30 656v44h277v-44h-114v-356h-49v356h-114zM383 700h52l118 -282l118 282h52v-400h-49v295l-107 -258h-28l-107 258v-295h-49v400z" />
    <glyph glyph-name="partialdiff" unicode="&#x2202;" horiz-adv-x="592" 
d="M172 560l-65 17c34 75 101 131 200 131c143 0 221 -126 221 -353c0 -192 -89 -363 -280 -363c-117 0 -198 86 -198 214c0 161 104 306 274 306c53 0 114 -23 138 -57c-12 118 -72 195 -162 195c-64 0 -102 -39 -128 -90zM315 454c-127 0 -199 -124 -199 -246
c0 -92 52 -158 132 -158c127 0 211 117 211 245c0 100 -54 159 -144 159z" />
    <glyph glyph-name="product" unicode="&#x220f;" horiz-adv-x="541" 
d="M94 0v700h353v-700h-62v644h-229v-644h-62z" />
    <glyph glyph-name="summation" unicode="&#x2211;" horiz-adv-x="542" 
d="M275 350l-215 335v15h416v-56h-322l183 -286v-16l-183 -286h322v-56h-416v15z" />
    <glyph glyph-name="minus" unicode="&#x2212;" horiz-adv-x="544" 
d="M69 289v56h410v-56h-410z" />
    <glyph glyph-name="radical" unicode="&#x221a;" horiz-adv-x="552" 
d="M468 708h56l-215 -708h-47l-108 333h-94v56h133l93 -281z" />
    <glyph glyph-name="infinity" unicode="&#x221e;" horiz-adv-x="876" 
d="M636 168c-83 0 -143 51 -198 133c-55 -82 -115 -133 -198 -133c-109 0 -180 78 -180 191s71 191 180 191c83 0 143 -51 198 -133c55 82 115 133 198 133c109 0 180 -78 180 -191s-71 -191 -180 -191zM253 224c59 0 114 46 158 135c-44 89 -99 135 -158 135
c-79 0 -131 -51 -131 -135s52 -135 131 -135zM623 224c79 0 131 51 131 135s-52 135 -131 135c-59 0 -114 -46 -158 -135c44 -89 99 -135 158 -135z" />
    <glyph glyph-name="integral" unicode="&#x222b;" horiz-adv-x="468" 
d="M109 -50l114 586c25 128 88 172 186 172c25 0 49 -6 61 -13l-24 -57c-15 8 -26 12 -50 12c-55 0 -95 -33 -109 -104l-114 -586c-25 -129 -84 -172 -182 -172c-25 0 -53 6 -65 13l24 57c12 -6 26 -12 50 -12c64 0 95 33 109 104z" />
    <glyph glyph-name="approxequal" unicode="&#x2248;" horiz-adv-x="572" 
d="M110 181l-40 39c30 42 74 78 122 78c78 0 105 -54 180 -54c35 0 67 17 90 45l40 -39c-30 -42 -74 -78 -122 -78c-78 0 -105 54 -180 54c-35 0 -67 -17 -90 -45zM110 381l-40 39c30 42 74 78 122 78c78 0 105 -54 180 -54c35 0 67 17 90 45l40 -39
c-30 -42 -74 -78 -122 -78c-78 0 -105 54 -180 54c-35 0 -67 -17 -90 -45z" />
    <glyph glyph-name="notequal" unicode="&#x2260;" horiz-adv-x="555" 
d="M84 365v56h225l64 111l48 -28l-48 -83h98v-56h-130l-63 -110h193v-56h-225l-64 -111l-48 28l48 83h-98v56h130l63 110h-193z" />
    <glyph glyph-name="pi" unicode="&#x3c0;" horiz-adv-x="593" 
d="M56 448v56h481v-56h-89v-448h-62v448h-179v-448h-62v448h-89z" />
    <glyph glyph-name="lessequal" unicode="&#x2264;" horiz-adv-x="530" 
d="M56 0v56h409v-56h-409zM93 368v68l334 180v-62l-283 -152l283 -152v-62z" />
    <glyph glyph-name="greaterequal" unicode="&#x2265;" horiz-adv-x="530" 
d="M474 56v-56h-409v56h409zM437 436v-68l-334 -180v62l283 152l-283 152v62z" />
    <glyph glyph-name="lozenge" unicode="&#x25ca;" horiz-adv-x="560" 
d="M249 0l-180 350l180 350h62l180 -350l-180 -350h-62zM280 64l147 286l-147 286l-147 -286z" />
    <glyph glyph-name="apple" unicode="&#xf8ff;" horiz-adv-x="794" 
d="M693 617v-595c0 -11 -9 -22 -22 -22c-2 0 -3 0 -7 1l-267 77l-267 -77c-4 -1 -5 -1 -7 -1c-13 0 -22 11 -22 22v595c0 10 7 19 16 22l270 78c3 1 8 2 10 2s7 -1 10 -2l270 -78c9 -3 16 -12 16 -22zM375 366v303l-230 -67c8 -125 106 -225 230 -236zM419 669v-303
c124 11 222 111 230 236zM144 463v-412l231 67v204c-98 8 -183 62 -231 141zM650 51v412c-49 -79 -133 -133 -231 -141v-204z" />
    <glyph glyph-name="No" horiz-adv-x="1214" 
d="M526 700h66v-700h-78l-347 593v-593h-66v700h78l347 -595v595zM718 0v56h409v-56h-409zM686 448c0 132 89 260 236 260s236 -128 236 -260s-89 -260 -236 -260s-236 128 -236 260zM751 448c0 -101 58 -202 171 -202s171 101 171 202s-58 202 -171 202
s-171 -101 -171 -202z" />
    <glyph glyph-name="foursuperior" unicode="&#x2074;" horiz-adv-x="338" 
d="M206 300v83h-171v17l162 300h59v-269h52v-48h-52v-83h-50zM104 431h102v195z" />
    <glyph glyph-name="fivesuperior" unicode="&#x2075;" horiz-adv-x="333" 
d="M50 406l49 9c8 -39 29 -71 74 -71c49 0 76 32 76 87c0 58 -28 88 -76 88c-32 0 -60 -20 -78 -45l-36 8l21 218h199v-48h-156l-13 -115c14 15 43 28 71 28c77 0 122 -51 122 -134c0 -82 -51 -135 -130 -135c-64 0 -113 38 -123 110z" />
    <glyph glyph-name="sixsuperior" unicode="&#x2076;" horiz-adv-x="365" 
d="M191 559c75 0 124 -52 124 -131c0 -74 -50 -132 -130 -132c-81 0 -131 58 -131 132c0 30 10 60 24 85l109 191h54l-91 -155c8 7 30 10 41 10zM185 511c-48 0 -77 -32 -77 -83c0 -48 29 -84 77 -84s76 36 76 84c0 51 -28 83 -76 83z" />
    <glyph glyph-name="sevensuperior" unicode="&#x2077;" horiz-adv-x="294" 
d="M119 300h-54l145 352h-164v48h228v-22z" />
    <glyph glyph-name="eightsuperior" unicode="&#x2078;" horiz-adv-x="354" 
d="M177 704c65 0 110 -44 110 -106c0 -40 -22 -69 -47 -83c34 -13 62 -47 62 -97c0 -77 -56 -122 -125 -122s-125 45 -125 122c0 50 28 84 62 97c-25 14 -47 43 -47 83c0 62 45 106 110 106zM177 489c-44 0 -71 -26 -71 -71c0 -44 27 -74 71 -74s71 30 71 74
c0 45 -27 71 -71 71zM177 660c-38 0 -62 -25 -62 -62c0 -36 24 -61 62 -61s62 25 62 61c0 37 -24 62 -62 62z" />
    <glyph glyph-name="ninesuperior" unicode="&#x2079;" horiz-adv-x="365" 
d="M174 441c-75 0 -124 52 -124 131c0 74 50 132 130 132c81 0 131 -58 131 -132c0 -30 -10 -60 -24 -85l-109 -191h-54l91 155c-8 -7 -30 -10 -41 -10zM180 489c48 0 77 32 77 83c0 48 -29 84 -77 84s-76 -36 -76 -84c0 -51 28 -83 76 -83z" />
    <glyph glyph-name="zerosuperior" unicode="&#x2070;" horiz-adv-x="385" 
d="M193 704c93 0 144 -82 144 -204s-51 -204 -144 -204c-94 0 -145 82 -145 204s51 204 145 204zM193 656c-55 0 -91 -53 -91 -156s36 -156 91 -156s91 53 91 156s-36 156 -91 156z" />
    <glyph glyph-name="ellipsis" unicode="&#x2026;" horiz-adv-x="778" 
d="M91 49c0 29 21 51 51 51c29 0 51 -22 51 -51c0 -30 -22 -51 -51 -51c-30 0 -51 21 -51 51zM338 49c0 29 21 51 51 51c29 0 51 -22 51 -51c0 -30 -22 -51 -51 -51c-30 0 -51 21 -51 51zM585 49c0 29 21 51 51 51c29 0 51 -22 51 -51c0 -30 -22 -51 -51 -51
c-30 0 -51 21 -51 51z" />
    <glyph glyph-name="zero.tn" horiz-adv-x="566" 
d="M283 708c161 0 241 -144 241 -358s-80 -358 -241 -358s-241 144 -241 358s80 358 241 358zM283 652c-113 0 -177 -125 -177 -302s64 -302 177 -302s177 125 177 302s-64 302 -177 302z" />
    <glyph glyph-name="one.tn" horiz-adv-x="566" 
d="M326 700h16v-700h-62v594l-116 -73v76z" />
    <glyph glyph-name="two.tn" horiz-adv-x="566" 
d="M77 0v23l255 330c63 81 78 112 78 171c0 79 -47 128 -124 128c-73 0 -124 -60 -136 -141l-58 11c10 109 87 186 194 186c106 0 188 -65 188 -186c0 -68 -36 -126 -85 -189l-214 -277h316v-56h-414z" />
    <glyph glyph-name="three.tn" horiz-adv-x="566" 
d="M68 192l62 9c10 -89 61 -153 153 -153c103 0 157 65 157 166c0 108 -58 167 -157 167c-21 0 -43 -6 -62 -18l-30 39l181 242h-269v56h366v-17l-189 -251c6 2 20 3 26 3c102 0 198 -79 198 -221c0 -131 -83 -222 -221 -222c-113 0 -202 71 -215 200z" />
    <glyph glyph-name="four.tn" horiz-adv-x="566" 
d="M356 0v161h-309v17l295 522h76v-483h93v-56h-93v-161h-62zM135 217h221v395z" />
    <glyph glyph-name="five.tn" horiz-adv-x="566" 
d="M79 184l61 11c11 -82 49 -147 144 -147c102 0 152 71 152 180c0 120 -57 180 -152 180c-65 0 -115 -44 -144 -94l-44 10l36 376h327v-56h-271l-25 -238c29 31 74 58 127 58c129 0 210 -90 210 -236c0 -138 -81 -236 -216 -236c-107 0 -189 62 -205 192z" />
    <glyph glyph-name="six.tn" horiz-adv-x="566" 
d="M283 448c130 0 218 -100 218 -228s-88 -228 -218 -228s-218 100 -218 228c0 40 13 86 37 129l207 359h65l-156 -277c14 11 46 17 65 17zM283 392c-90 0 -154 -66 -154 -172c0 -100 64 -172 154 -172s154 72 154 172c0 106 -64 172 -154 172z" />
    <glyph glyph-name="seven.tn" horiz-adv-x="566" 
d="M204 0h-65l268 644h-314v56h388v-20z" />
    <glyph glyph-name="eight.tn" horiz-adv-x="566" 
d="M283 708c111 0 186 -75 186 -182c0 -73 -41 -124 -88 -149c63 -23 112 -94 112 -181c0 -134 -98 -204 -210 -204s-210 70 -210 204c0 87 49 158 112 181c-47 25 -88 76 -88 149c0 107 75 182 186 182zM283 344c-87 0 -146 -55 -146 -148s59 -148 146 -148
c88 0 146 55 146 148s-59 148 -146 148zM283 652c-74 0 -124 -49 -124 -126s50 -126 124 -126s124 49 124 126s-50 126 -124 126z" />
    <glyph glyph-name="nine.tn" horiz-adv-x="566" 
d="M283 252c-130 0 -218 100 -218 228s88 228 218 228s218 -100 218 -228c0 -40 -13 -86 -37 -129l-207 -359h-65l156 277c-14 -11 -46 -17 -65 -17zM283 308c90 0 154 66 154 172c0 100 -64 172 -154 172s-154 -72 -154 -172c0 -106 64 -172 154 -172z" />
    <glyph glyph-name="zeroinferior" unicode="&#x2080;" horiz-adv-x="385" 
d="M193 200c93 0 144 -82 144 -204s-51 -204 -144 -204c-94 0 -145 82 -145 204s51 204 145 204zM193 152c-55 0 -91 -53 -91 -156s36 -156 91 -156s91 53 91 156s-36 156 -91 156z" />
    <glyph glyph-name="oneinferior" unicode="&#x2081;" horiz-adv-x="284" 
d="M179 196h16v-400h-50v326l-85 -41v56z" />
    <glyph glyph-name="twoinferior" unicode="&#x2082;" horiz-adv-x="381" 
d="M65 -204v19l147 183c30 37 40 60 40 90c0 38 -21 62 -62 62c-38 0 -59 -33 -64 -76l-54 14c6 63 51 112 118 112c73 0 116 -47 116 -112c0 -37 -13 -72 -39 -105l-111 -137h160v-50h-251z" />
    <glyph glyph-name="threeinferior" unicode="&#x2083;" horiz-adv-x="385" 
d="M65 -91l54 8c5 -45 30 -77 75 -77c50 0 72 37 72 84s-22 81 -72 81c-16 0 -27 -5 -35 -10l-26 35l89 118h-135v48h213v-17l-100 -135c3 1 15 2 18 2c58 0 102 -46 102 -122c0 -69 -40 -132 -126 -132c-69 0 -122 43 -129 117z" />
    <glyph glyph-name="fourinferior" unicode="&#x2084;" horiz-adv-x="338" 
d="M206 -204v83h-171v17l162 300h59v-269h52v-48h-52v-83h-50zM104 -73h102v195z" />
    <glyph glyph-name="fiveinferior" unicode="&#x2085;" horiz-adv-x="333" 
d="M50 -98l49 9c8 -39 29 -71 74 -71c49 0 76 32 76 87c0 58 -28 88 -76 88c-32 0 -60 -20 -78 -45l-36 8l21 218h199v-48h-156l-13 -115c14 15 43 28 71 28c77 0 122 -51 122 -134c0 -82 -51 -135 -130 -135c-64 0 -113 38 -123 110z" />
    <glyph glyph-name="sixinferior" unicode="&#x2086;" horiz-adv-x="365" 
d="M191 55c75 0 124 -52 124 -131c0 -74 -50 -132 -130 -132c-81 0 -131 58 -131 132c0 30 10 60 24 85l109 191h54l-91 -155c8 7 30 10 41 10zM185 7c-48 0 -77 -32 -77 -83c0 -48 29 -84 77 -84s76 36 76 84c0 51 -28 83 -76 83z" />
    <glyph glyph-name="seveninferior" unicode="&#x2087;" horiz-adv-x="294" 
d="M119 -204h-54l145 352h-164v48h228v-22z" />
    <glyph glyph-name="eightinferior" unicode="&#x2088;" horiz-adv-x="354" 
d="M177 200c65 0 110 -44 110 -106c0 -40 -22 -69 -47 -83c34 -13 62 -47 62 -97c0 -77 -56 -122 -125 -122s-125 45 -125 122c0 50 28 84 62 97c-25 14 -47 43 -47 83c0 62 45 106 110 106zM177 -15c-44 0 -71 -26 -71 -71c0 -44 27 -74 71 -74s71 30 71 74
c0 45 -27 71 -71 71zM177 156c-38 0 -62 -25 -62 -62c0 -36 24 -61 62 -61s62 25 62 61c0 37 -24 62 -62 62z" />
    <glyph glyph-name="nineinferior" unicode="&#x2089;" horiz-adv-x="365" 
d="M174 -63c-75 0 -124 52 -124 131c0 74 50 132 130 132c81 0 131 -58 131 -132c0 -30 -10 -60 -24 -85l-109 -191h-54l91 155c-8 -7 -30 -10 -41 -10zM180 -15c48 0 77 32 77 83c0 48 -29 84 -77 84s-76 -36 -76 -84c0 -51 28 -83 76 -83z" />
    <glyph glyph-name="edition" horiz-adv-x="2491" 
d="M526 700h66v-700h-78l-347 593v-593h-66v700h78l347 -595v595zM718 0v56h409v-56h-409zM686 448c0 132 89 260 236 260s236 -128 236 -260s-89 -260 -236 -260s-236 128 -236 260zM751 448c0 -101 58 -202 171 -202s171 101 171 202s-58 202 -171 202
s-171 -101 -171 -202zM1453 704c93 0 144 -82 144 -204s-51 -204 -144 -204c-94 0 -145 82 -145 204s51 204 145 204zM1453 656c-55 0 -91 -53 -91 -156s36 -156 91 -156s91 53 91 156s-36 156 -91 156zM1860 704c93 0 144 -82 144 -204s-51 -204 -144 -204
c-94 0 -145 82 -145 204s51 204 145 204zM1860 656c-55 0 -91 -53 -91 -156s36 -156 91 -156s91 53 91 156s-36 156 -91 156zM2267 704c93 0 144 -82 144 -204s-51 -204 -144 -204c-94 0 -145 82 -145 204s51 204 145 204zM2267 656c-55 0 -91 -53 -91 -156s36 -156 91 -156
s91 53 91 156s-36 156 -91 156z" />
    <glyph glyph-name="exclam" unicode="!" horiz-adv-x="325" 
d="M123 700h84l-22 -516h-40zM110 53c0 32 23 55 55 55s55 -23 55 -55s-23 -55 -55 -55s-55 23 -55 55z" />
    <glyph glyph-name="quotedbl" unicode="&#x22;" horiz-adv-x="418" 
d="M112 480l-21 228h89l-21 -228h-47zM259 480l-21 228h89l-21 -228h-47z" />
    <glyph glyph-name="onethird" unicode="&#x2153;" horiz-adv-x="903" 
d="M671 724l42 -33l-542 -715l-42 33zM208 700h16v-400h-50v326l-85 -41v56zM565 113l54 8c5 -45 30 -77 75 -77c50 0 72 37 72 84s-22 81 -72 81c-16 0 -27 -5 -35 -10l-26 35l89 118h-135v48h213v-17l-100 -135c3 1 15 2 18 2c58 0 102 -46 102 -122
c0 -69 -40 -132 -126 -132c-69 0 -122 43 -129 117z" />
    <glyph glyph-name="twothirds" unicode="&#x2154;" horiz-adv-x="917" 
d="M701 724l42 -33l-542 -715l-42 33zM595 113l54 8c5 -45 30 -77 75 -77c50 0 72 37 72 84s-22 81 -72 81c-16 0 -27 -5 -35 -10l-26 35l89 118h-135v48h213v-17l-100 -135c3 1 15 2 18 2c58 0 102 -46 102 -122c0 -69 -40 -132 -126 -132c-69 0 -122 43 -129 117zM44 300
v19l147 183c30 37 40 60 40 90c0 38 -21 62 -62 62c-38 0 -59 -33 -64 -76l-54 14c6 63 51 112 118 112c73 0 116 -47 116 -112c0 -37 -13 -72 -39 -105l-111 -137h160v-50h-251z" />
    <glyph glyph-name="oneeighth" unicode="&#x215b;" horiz-adv-x="848" 
d="M671 724l42 -33l-542 -715l-42 33zM208 700h16v-400h-50v326l-85 -41v56zM678 404c65 0 110 -44 110 -106c0 -40 -22 -69 -47 -83c34 -13 62 -47 62 -97c0 -77 -56 -122 -125 -122s-125 45 -125 122c0 50 28 84 62 97c-25 14 -47 43 -47 83c0 62 45 106 110 106zM678 189
c-44 0 -71 -26 -71 -71c0 -44 27 -74 71 -74s71 30 71 74c0 45 -27 71 -71 71zM678 360c-38 0 -62 -25 -62 -62c0 -36 24 -61 62 -61s62 25 62 61c0 37 -24 62 -62 62z" />
    <glyph glyph-name="threeeighths" unicode="&#x215c;" horiz-adv-x="874" 
d="M704 404c65 0 110 -44 110 -106c0 -40 -22 -69 -47 -83c34 -13 62 -47 62 -97c0 -77 -56 -122 -125 -122s-125 45 -125 122c0 50 28 84 62 97c-25 14 -47 43 -47 83c0 62 45 106 110 106zM704 189c-44 0 -71 -26 -71 -71c0 -44 27 -74 71 -74s71 30 71 74
c0 45 -27 71 -71 71zM704 360c-38 0 -62 -25 -62 -62c0 -36 24 -61 62 -61s62 25 62 61c0 37 -24 62 -62 62zM697 724l42 -33l-542 -715l-42 33zM67 413l54 8c5 -45 30 -77 75 -77c50 0 72 37 72 84s-22 81 -72 81c-16 0 -27 -5 -35 -10l-26 35l89 118h-135v48h213v-17
l-100 -135c3 1 15 2 18 2c58 0 102 -46 102 -122c0 -69 -40 -132 -126 -132c-69 0 -122 43 -129 117z" />
    <glyph glyph-name="fiveeighths" unicode="&#x215d;" horiz-adv-x="874" 
d="M704 404c65 0 110 -44 110 -106c0 -40 -22 -69 -47 -83c34 -13 62 -47 62 -97c0 -77 -56 -122 -125 -122s-125 45 -125 122c0 50 28 84 62 97c-25 14 -47 43 -47 83c0 62 45 106 110 106zM704 189c-44 0 -71 -26 -71 -71c0 -44 27 -74 71 -74s71 30 71 74
c0 45 -27 71 -71 71zM704 360c-38 0 -62 -25 -62 -62c0 -36 24 -61 62 -61s62 25 62 61c0 37 -24 62 -62 62zM697 724l42 -33l-542 -715l-42 33zM55 406l49 9c8 -39 29 -71 74 -71c49 0 76 32 76 87c0 58 -28 88 -76 88c-32 0 -60 -20 -78 -45l-36 8l21 218h199v-48h-156
l-13 -115c14 15 43 28 71 28c77 0 122 -51 122 -134c0 -82 -51 -135 -130 -135c-64 0 -113 38 -123 110z" />
    <glyph glyph-name="seveneighths" unicode="&#x215e;" horiz-adv-x="811" 
d="M641 404c65 0 110 -44 110 -106c0 -40 -22 -69 -47 -83c34 -13 62 -47 62 -97c0 -77 -56 -122 -125 -122s-125 45 -125 122c0 50 28 84 62 97c-25 14 -47 43 -47 83c0 62 45 106 110 106zM641 189c-44 0 -71 -26 -71 -71c0 -44 27 -74 71 -74s71 30 71 74
c0 45 -27 71 -71 71zM641 360c-38 0 -62 -25 -62 -62c0 -36 24 -61 62 -61s62 25 62 61c0 37 -24 62 -62 62zM634 724l42 -33l-542 -715l-42 33zM142 300h-54l145 352h-164v48h228v-22z" />
    <glyph glyph-name="quotedblleft.alt" horiz-adv-x="456" 
d="M182 708l13 -15c-33 -23 -61 -63 -61 -97c35 -9 53 -30 53 -59c0 -31 -23 -56 -57 -56c-33 0 -60 27 -60 64c0 65 54 125 112 163zM365 708l13 -15c-33 -23 -61 -63 -61 -97c35 -9 53 -30 53 -59c0 -31 -23 -56 -57 -56c-33 0 -60 27 -60 64c0 65 54 125 112 163z" />
    <glyph glyph-name="quotedblright.alt" horiz-adv-x="456" 
d="M274 481l-13 15c33 23 61 63 61 97c-35 9 -53 30 -53 59c0 31 23 56 57 56c33 0 60 -27 60 -64c0 -65 -54 -125 -112 -163zM91 481l-13 15c33 23 61 63 61 97c-35 9 -53 30 -53 59c0 31 23 56 57 56c33 0 60 -27 60 -64c0 -65 -54 -125 -112 -163z" />
    <glyph glyph-name="quoteleft.alt" horiz-adv-x="265" 
d="M177 708l13 -15c-33 -23 -61 -63 -61 -97c35 -9 53 -30 53 -59c0 -31 -23 -56 -57 -56c-33 0 -60 27 -60 64c0 65 54 125 112 163z" />
    <glyph glyph-name="quoteright.alt" horiz-adv-x="265" 
d="M88 481l-13 15c33 23 61 63 61 97c-35 9 -53 30 -53 59c0 31 23 56 57 56c33 0 60 -27 60 -64c0 -65 -54 -125 -112 -163z" />
    <glyph glyph-name="quotesinglbase.alt" horiz-adv-x="265" 
d="M88 -87l-13 15c33 23 61 63 61 97c-35 9 -53 30 -53 59c0 31 23 56 57 56c33 0 60 -27 60 -64c0 -65 -54 -125 -112 -163z" />
    <glyph glyph-name="quotedblbase.alt" horiz-adv-x="448" 
d="M271 -87l-13 15c33 23 61 63 61 97c-35 9 -53 30 -53 59c0 31 23 56 57 56c33 0 60 -27 60 -64c0 -65 -54 -125 -112 -163zM88 -87l-13 15c33 23 61 63 61 97c-35 9 -53 30 -53 59c0 31 23 56 57 56c33 0 60 -27 60 -64c0 -65 -54 -125 -112 -163z" />
    <glyph glyph-name="Amacron" unicode="&#x100;" 
d="M263 700h58l253 -700h-68l-70 199h-288l-70 -199h-68zM292 610l-123 -349h246zM172 813v56h241v-56h-241z" />
    <glyph glyph-name="amacron" unicode="&#x101;" horiz-adv-x="506" 
d="M122 145c0 -62 38 -95 98 -95c65 0 153 47 153 183v19h-82c-115 0 -169 -41 -169 -107zM435 334v-334h-47l-15 78c-28 -49 -79 -86 -159 -86c-84 0 -157 42 -157 153c0 112 91 165 232 165h84v22c0 88 -49 122 -116 122c-69 0 -105 -43 -120 -94l-60 14
c14 85 90 138 180 138c99 0 178 -64 178 -178zM134 616v56h241v-56h-241z" />
    <glyph glyph-name="Abreve" unicode="&#x102;" 
d="M263 700h58l253 -700h-68l-70 199h-288l-70 -199h-68zM292 610l-123 -349h246zM346 896h51c0 -64 -38 -109 -105 -109c-65 0 -105 45 -105 109h51c0 -34 18 -59 54 -59c38 0 54 25 54 59z" />
    <glyph glyph-name="abreve" unicode="&#x103;" horiz-adv-x="506" 
d="M122 145c0 -62 38 -95 98 -95c65 0 153 47 153 183v19h-82c-115 0 -169 -41 -169 -107zM435 334v-334h-47l-15 78c-28 -49 -79 -86 -159 -86c-84 0 -157 42 -157 153c0 112 91 165 232 165h84v22c0 88 -49 122 -116 122c-69 0 -105 -43 -120 -94l-60 14
c14 85 90 138 180 138c99 0 178 -64 178 -178zM311 700h51c0 -64 -38 -109 -105 -109c-65 0 -105 45 -105 109h51c0 -34 18 -59 54 -59c38 0 54 25 54 59z" />
    <glyph glyph-name="Aogonek" unicode="&#x104;" 
d="M519 0h-13l-70 199h-288l-70 -199h-68l253 700h58l253 -700c-36 -33 -56 -55 -56 -80c0 -21 13 -33 33 -33c22 0 37 15 57 42l39 -31c-34 -45 -60 -67 -106 -67c-49 0 -79 31 -79 77c0 32 19 65 57 92zM292 610l-123 -349h246z" />
    <glyph glyph-name="aogonek" unicode="&#x105;" horiz-adv-x="506" 
d="M388 0l-15 78c-28 -49 -79 -86 -159 -86c-84 0 -157 42 -157 153c0 112 91 165 232 165h84v22c0 88 -49 122 -116 122c-69 0 -105 -43 -120 -94l-60 14c14 85 90 138 180 138c99 0 178 -64 178 -178v-334c-36 -33 -56 -55 -56 -80c0 -21 13 -33 33 -33c22 0 37 15 57 42
l39 -31c-34 -45 -60 -67 -106 -67c-49 0 -79 31 -79 77c0 32 24 68 65 92zM122 145c0 -62 38 -95 98 -95c65 0 153 47 153 183v19h-82c-115 0 -169 -41 -169 -107z" />
    <glyph glyph-name="Aringacute" unicode="&#x1fa;" 
d="M263 700h58l253 -700h-68l-70 199h-288l-70 -199h-68zM292 610l-123 -349h246zM195 823c0 55 42 98 97 98c57 0 97 -43 97 -98c0 -53 -40 -94 -97 -94c-55 0 -97 41 -97 94zM241 824c0 -30 21 -52 51 -52c31 0 51 22 51 52c0 31 -20 54 -51 54c-30 0 -51 -23 -51 -54z
M230 958l70 140h93l-114 -140h-49z" />
    <glyph glyph-name="aringacute" unicode="&#x1fb;" horiz-adv-x="506" 
d="M122 145c0 -62 38 -95 98 -95c65 0 153 47 153 183v19h-82c-115 0 -169 -41 -169 -107zM435 334v-334h-47l-15 78c-28 -49 -79 -86 -159 -86c-84 0 -157 42 -157 153c0 112 91 165 232 165h84v22c0 88 -49 122 -116 122c-69 0 -105 -43 -120 -94l-60 14
c14 85 90 138 180 138c99 0 178 -64 178 -178zM162 653c0 55 42 98 97 98c57 0 97 -43 97 -98c0 -53 -40 -94 -97 -94c-55 0 -97 41 -97 94zM208 654c0 -30 21 -52 51 -52c31 0 51 22 51 52c0 31 -20 54 -51 54c-30 0 -51 -23 -51 -54zM218 786l70 140h93l-114 -140h-49z
" />
    <glyph glyph-name="AEacute" unicode="&#x1fc;" horiz-adv-x="821" 
d="M314 700h435v-62h-329v-234h269v-62h-269v-280h339v-62h-405v199h-191l-87 -199h-69zM343 610l-153 -349h164v349h-11zM472 756l70 140h93l-114 -140h-49z" />
    <glyph glyph-name="aeacute" unicode="&#x1fd;" horiz-adv-x="869" 
d="M818 280v-28h-380c0 -118 58 -202 159 -202c77 0 122 35 154 104l56 -23c-52 -103 -117 -139 -210 -139c-91 0 -163 51 -195 127c-32 -88 -105 -127 -188 -127c-84 0 -157 42 -157 153c0 112 91 165 232 165h84v22c0 88 -49 122 -116 122c-69 0 -105 -43 -120 -94l-60 14
c14 85 90 138 180 138c75 0 137 -37 163 -97c39 60 101 97 177 97c130 0 221 -93 221 -232zM122 145c0 -62 38 -95 98 -95c65 0 153 47 153 183v19h-82c-115 0 -169 -41 -169 -107zM597 454c-84 0 -138 -62 -155 -144h312c-12 87 -66 144 -157 144zM353 560l70 140h93
l-114 -140h-49z" />
    <glyph glyph-name="Cacute" unicode="&#x106;" horiz-adv-x="680" 
d="M567 211l65 -19c-35 -122 -130 -200 -264 -200c-158 0 -309 115 -309 358s152 358 309 358c134 0 229 -78 264 -200l-65 -19c-26 97 -92 157 -199 157c-140 0 -240 -105 -240 -296s100 -296 240 -296c107 0 173 60 199 157zM306 756l70 140h93l-114 -140h-49z" />
    <glyph glyph-name="cacute" unicode="&#x107;" horiz-adv-x="528" 
d="M426 153l56 -22c-35 -91 -104 -139 -203 -139c-148 0 -223 128 -223 260s75 260 223 260c99 0 168 -48 203 -139l-56 -22c-27 66 -72 103 -147 103c-108 0 -158 -93 -158 -202s50 -202 158 -202c75 0 120 37 147 103zM219 560l70 140h93l-114 -140h-49z" />
    <glyph glyph-name="Ccircumflex" unicode="&#x108;" horiz-adv-x="680" 
d="M567 211l65 -19c-35 -122 -130 -200 -264 -200c-158 0 -309 115 -309 358s152 358 309 358c134 0 229 -78 264 -200l-65 -19c-26 97 -92 157 -199 157c-140 0 -240 -105 -240 -296s100 -296 240 -296c107 0 173 60 199 157zM213 762l144 151h22l144 -151h-72l-83 89
l-83 -89h-72z" />
    <glyph glyph-name="ccircumflex" unicode="&#x109;" horiz-adv-x="528" 
d="M426 153l56 -22c-35 -91 -104 -139 -203 -139c-148 0 -223 128 -223 260s75 260 223 260c99 0 168 -48 203 -139l-56 -22c-27 66 -72 103 -147 103c-108 0 -158 -93 -158 -202s50 -202 158 -202c75 0 120 37 147 103zM130 566l144 151h22l144 -151h-72l-83 89l-83 -89
h-72z" />
    <glyph glyph-name="Cdotaccent" unicode="&#x10a;" horiz-adv-x="680" 
d="M567 211l65 -19c-35 -122 -130 -200 -264 -200c-158 0 -309 115 -309 358s152 358 309 358c134 0 229 -78 264 -200l-65 -19c-26 97 -92 157 -199 157c-140 0 -240 -105 -240 -296s100 -296 240 -296c107 0 173 60 199 157zM319 841c0 29 22 51 51 51s51 -22 51 -51
s-22 -51 -51 -51s-51 22 -51 51z" />
    <glyph glyph-name="cdotaccent" unicode="&#x10b;" horiz-adv-x="528" 
d="M426 153l56 -22c-35 -91 -104 -139 -203 -139c-148 0 -223 128 -223 260s75 260 223 260c99 0 168 -48 203 -139l-56 -22c-27 66 -72 103 -147 103c-108 0 -158 -93 -158 -202s50 -202 158 -202c75 0 120 37 147 103zM229 649c0 29 22 51 51 51s51 -22 51 -51
s-22 -51 -51 -51s-51 22 -51 51z" />
    <glyph glyph-name="Ccaron" unicode="&#x10c;" horiz-adv-x="680" 
d="M567 211l65 -19c-35 -122 -130 -200 -264 -200c-158 0 -309 115 -309 358s152 358 309 358c134 0 229 -78 264 -200l-65 -19c-26 97 -92 157 -199 157c-140 0 -240 -105 -240 -296s100 -296 240 -296c107 0 173 60 199 157zM359 762l-144 151h72l83 -89l83 89h72
l-144 -151h-22z" />
    <glyph glyph-name="ccaron" unicode="&#x10d;" horiz-adv-x="528" 
d="M426 153l56 -22c-35 -91 -104 -139 -203 -139c-148 0 -223 128 -223 260s75 260 223 260c99 0 168 -48 203 -139l-56 -22c-27 66 -72 103 -147 103c-108 0 -158 -93 -158 -202s50 -202 158 -202c75 0 120 37 147 103zM270 566l-144 151h72l83 -89l83 89h72l-144 -151h-22
z" />
    <glyph glyph-name="Dcaron" unicode="&#x10e;" horiz-adv-x="662" 
d="M101 700h184c180 0 318 -131 318 -350s-138 -350 -318 -350h-184v700zM286 638h-119v-576h119c129 0 248 87 248 288s-119 288 -248 288zM259 762l-144 151h72l83 -89l83 89h72l-144 -151h-22z" />
    <glyph glyph-name="dcaron" unicode="&#x10f;" horiz-adv-x="787" 
d="M440 708h62v-708h-62v66c-26 -39 -93 -74 -159 -74c-147 0 -225 116 -225 260s78 260 225 260c54 0 122 -31 159 -79v275zM121 252c0 -114 56 -202 163 -202s162 88 162 202c0 112 -55 202 -162 202s-163 -90 -163 -202zM580 524l61 184h103l-115 -184h-49z" />
    <glyph glyph-name="Dcroat" unicode="&#x110;" horiz-adv-x="687" 
d="M42 319v62h84v319h184c180 0 318 -131 318 -350s-138 -350 -318 -350h-184v319h-84zM311 638h-119v-257h84v-62h-84v-257h119c129 0 248 87 248 288s-119 288 -248 288z" />
    <glyph glyph-name="dcroat" unicode="&#x111;" horiz-adv-x="598" 
d="M305 578v56h135v74h62v-74h73v-56h-73v-578h-62v66c-26 -39 -93 -74 -159 -74c-147 0 -225 116 -225 260s78 260 225 260c54 0 122 -31 159 -79v145h-135zM121 252c0 -114 56 -202 163 -202s162 88 162 202c0 112 -55 202 -162 202s-163 -90 -163 -202z" />
    <glyph glyph-name="Emacron" unicode="&#x112;" horiz-adv-x="568" 
d="M101 700h395v-62h-329v-234h269v-62h-269v-280h339v-62h-405v700zM179 813v56h241v-56h-241z" />
    <glyph glyph-name="emacron" unicode="&#x113;" horiz-adv-x="552" 
d="M501 280v-28h-380c0 -118 58 -202 159 -202c77 0 118 33 155 108l55 -27c-52 -103 -117 -139 -210 -139c-134 0 -224 110 -224 260s90 260 224 260c130 0 221 -93 221 -232zM280 454c-84 0 -138 -62 -155 -144h312c-12 87 -66 144 -157 144zM162 616v56h241v-56h-241z
" />
    <glyph glyph-name="Ebreve" unicode="&#x114;" horiz-adv-x="568" 
d="M101 700h395v-62h-329v-234h269v-62h-269v-280h339v-62h-405v700zM345 896h51c0 -64 -38 -109 -105 -109c-65 0 -105 45 -105 109h51c0 -34 18 -59 54 -59c38 0 54 25 54 59z" />
    <glyph glyph-name="ebreve" unicode="&#x115;" horiz-adv-x="552" 
d="M501 280v-28h-380c0 -118 58 -202 159 -202c77 0 118 33 155 108l55 -27c-52 -103 -117 -139 -210 -139c-134 0 -224 110 -224 260s90 260 224 260c130 0 221 -93 221 -232zM280 454c-84 0 -138 -62 -155 -144h312c-12 87 -66 144 -157 144zM336 700h51
c0 -64 -38 -109 -105 -109c-65 0 -105 45 -105 109h51c0 -34 18 -59 54 -59c38 0 54 25 54 59z" />
    <glyph glyph-name="Edotaccent" unicode="&#x116;" horiz-adv-x="568" 
d="M101 700h395v-62h-329v-234h269v-62h-269v-280h339v-62h-405v700zM247 841c0 29 22 51 51 51s51 -22 51 -51s-22 -51 -51 -51s-51 22 -51 51z" />
    <glyph glyph-name="edotaccent" unicode="&#x117;" horiz-adv-x="552" 
d="M501 280v-28h-380c0 -118 58 -202 159 -202c77 0 118 33 155 108l55 -27c-52 -103 -117 -139 -210 -139c-134 0 -224 110 -224 260s90 260 224 260c130 0 221 -93 221 -232zM280 454c-84 0 -138 -62 -155 -144h312c-12 87 -66 144 -157 144zM225 649c0 29 22 51 51 51
s51 -22 51 -51s-22 -51 -51 -51s-51 22 -51 51z" />
    <glyph glyph-name="Eogonek" unicode="&#x118;" horiz-adv-x="568" 
d="M451 0h-350v700h395v-62h-329v-234h269v-62h-269v-280h339v-62c-36 -33 -56 -55 -56 -80c0 -21 13 -33 33 -33c22 0 37 15 57 42l39 -31c-34 -45 -60 -67 -106 -67c-49 0 -79 31 -79 77c0 32 19 65 57 92z" />
    <glyph glyph-name="eogonek" unicode="&#x119;" horiz-adv-x="552" 
d="M501 280v-28h-380c0 -118 58 -202 159 -202c77 0 118 33 155 108l55 -27c-38 -76 -84 -116 -142 -131c-36 -33 -56 -55 -56 -80c0 -21 13 -33 33 -33c22 0 37 15 57 42l39 -31c-34 -45 -60 -67 -106 -67c-49 0 -79 31 -79 77c0 29 15 59 46 84c-137 0 -226 110 -226 260
s90 260 224 260c130 0 221 -93 221 -232zM280 454c-84 0 -138 -62 -155 -144h312c-12 87 -66 144 -157 144z" />
    <glyph glyph-name="Ecaron" unicode="&#x11a;" horiz-adv-x="568" 
d="M101 700h395v-62h-329v-234h269v-62h-269v-280h339v-62h-405v700zM289 762l-144 151h72l83 -89l83 89h72l-144 -151h-22z" />
    <glyph glyph-name="ecaron" unicode="&#x11b;" horiz-adv-x="552" 
d="M501 280v-28h-380c0 -118 58 -202 159 -202c77 0 118 33 155 108l55 -27c-52 -103 -117 -139 -210 -139c-134 0 -224 110 -224 260s90 260 224 260c130 0 221 -93 221 -232zM280 454c-84 0 -138 -62 -155 -144h312c-12 87 -66 144 -157 144zM270 566l-144 151h72l83 -89
l83 89h72l-144 -151h-22z" />
    <glyph glyph-name="uni018E" unicode="&#x18e;" horiz-adv-x="568" 
d="M467 0h-395v62h329v234h-269v62h269v280h-339v62h405v-700z" />
    <glyph glyph-name="uni018F" unicode="&#x18f;" horiz-adv-x="552" 
d="M51 224v28h380c0 118 -58 202 -159 202c-77 0 -118 -33 -155 -108l-55 27c52 103 117 139 210 139c134 0 224 -110 224 -260s-90 -260 -224 -260c-130 0 -221 93 -221 232zM272 50c84 0 138 62 155 144h-312c12 -87 66 -144 157 -144z" />
    <glyph glyph-name="Gcircumflex" unicode="&#x11c;" horiz-adv-x="708" 
d="M582 0l-8 108c-37 -71 -115 -116 -208 -116c-158 0 -307 119 -307 358s149 358 307 358c140 0 236 -79 270 -204l-65 -18c-31 101 -102 160 -205 160c-138 0 -238 -104 -238 -296s100 -296 238 -296c133 0 206 82 208 237h-162v62h228v-353h-58zM213 762l144 151h22
l144 -151h-72l-83 89l-83 -89h-72z" />
    <glyph glyph-name="gcircumflex" unicode="&#x11d;" horiz-adv-x="491" 
d="M91 343c0 102 75 169 171 169c32 0 62 -9 87 -23l90 51l29 -53l-70 -39c22 -28 35 -63 35 -105c0 -103 -75 -169 -171 -169c-35 0 -67 8 -94 24c-30 -13 -41 -32 -41 -56c0 -36 30 -48 62 -48h130c87 0 151 -39 151 -132c0 -124 -90 -174 -207 -174
c-128 0 -208 62 -208 166c0 49 24 85 52 106c-25 15 -40 41 -40 82c0 42 27 74 62 90c-23 28 -38 67 -38 111zM312 40h-103c-18 0 -34 1 -49 3c-34 -22 -45 -57 -45 -91c0 -65 48 -108 148 -108c99 0 147 48 147 110c0 63 -39 86 -98 86zM153 343c0 -73 51 -115 109 -115
s109 42 109 115s-51 115 -109 115s-109 -42 -109 -115zM108 566l144 151h22l144 -151h-72l-83 89l-83 -89h-72z" />
    <glyph glyph-name="Gbreve" unicode="&#x11e;" horiz-adv-x="708" 
d="M582 0l-8 108c-37 -71 -115 -116 -208 -116c-158 0 -307 119 -307 358s149 358 307 358c140 0 236 -79 270 -204l-65 -18c-31 101 -102 160 -205 160c-138 0 -238 -104 -238 -296s100 -296 238 -296c133 0 206 82 208 237h-162v62h228v-353h-58zM420 896h51
c0 -64 -38 -109 -105 -109c-65 0 -105 45 -105 109h51c0 -34 18 -59 54 -59c38 0 54 25 54 59z" />
    <glyph glyph-name="gbreve" unicode="&#x11f;" horiz-adv-x="491" 
d="M91 343c0 102 75 169 171 169c32 0 62 -9 87 -23l90 51l29 -53l-70 -39c22 -28 35 -63 35 -105c0 -103 -75 -169 -171 -169c-35 0 -67 8 -94 24c-30 -13 -41 -32 -41 -56c0 -36 30 -48 62 -48h130c87 0 151 -39 151 -132c0 -124 -90 -174 -207 -174
c-128 0 -208 62 -208 166c0 49 24 85 52 106c-25 15 -40 41 -40 82c0 42 27 74 62 90c-23 28 -38 67 -38 111zM312 40h-103c-18 0 -34 1 -49 3c-34 -22 -45 -57 -45 -91c0 -65 48 -108 148 -108c99 0 147 48 147 110c0 63 -39 86 -98 86zM153 343c0 -73 51 -115 109 -115
s109 42 109 115s-51 115 -109 115s-109 -42 -109 -115zM316 700h51c0 -64 -38 -109 -105 -109c-65 0 -105 45 -105 109h51c0 -34 18 -59 54 -59c38 0 54 25 54 59z" />
    <glyph glyph-name="Gdotaccent" unicode="&#x120;" horiz-adv-x="708" 
d="M582 0l-8 108c-37 -71 -115 -116 -208 -116c-158 0 -307 119 -307 358s149 358 307 358c140 0 236 -79 270 -204l-65 -18c-31 101 -102 160 -205 160c-138 0 -238 -104 -238 -296s100 -296 238 -296c133 0 206 82 208 237h-162v62h228v-353h-58zM314 841
c0 29 22 51 51 51s51 -22 51 -51s-22 -51 -51 -51s-51 22 -51 51z" />
    <glyph glyph-name="gdotaccent" unicode="&#x121;" horiz-adv-x="491" 
d="M91 343c0 102 75 169 171 169c32 0 62 -9 87 -23l90 51l29 -53l-70 -39c22 -28 35 -63 35 -105c0 -103 -75 -169 -171 -169c-35 0 -67 8 -94 24c-30 -13 -41 -32 -41 -56c0 -36 30 -48 62 -48h130c87 0 151 -39 151 -132c0 -124 -90 -174 -207 -174
c-128 0 -208 62 -208 166c0 49 24 85 52 106c-25 15 -40 41 -40 82c0 42 27 74 62 90c-23 28 -38 67 -38 111zM312 40h-103c-18 0 -34 1 -49 3c-34 -22 -45 -57 -45 -91c0 -65 48 -108 148 -108c99 0 147 48 147 110c0 63 -39 86 -98 86zM153 343c0 -73 51 -115 109 -115
s109 42 109 115s-51 115 -109 115s-109 -42 -109 -115zM212 649c0 29 22 51 51 51s51 -22 51 -51s-22 -51 -51 -51s-51 22 -51 51z" />
    <glyph glyph-name="uni0122" unicode="&#x122;" horiz-adv-x="708" 
d="M582 0l-8 108c-37 -71 -115 -116 -208 -116c-158 0 -307 119 -307 358s149 358 307 358c140 0 236 -79 270 -204l-65 -18c-31 101 -102 160 -205 160c-138 0 -238 -104 -238 -296s100 -296 238 -296c133 0 206 82 208 237h-162v62h228v-353h-58zM287 -217l50 165h92
l-96 -165h-46z" />
    <glyph glyph-name="uni0123" unicode="&#x123;" horiz-adv-x="491" 
d="M91 343c0 102 75 169 171 169c32 0 62 -9 87 -23l90 51l29 -53l-70 -39c22 -28 35 -63 35 -105c0 -103 -75 -169 -171 -169c-35 0 -67 8 -94 24c-30 -13 -41 -32 -41 -56c0 -36 30 -48 62 -48h130c87 0 151 -39 151 -132c0 -124 -90 -174 -207 -174
c-128 0 -208 62 -208 166c0 49 24 85 52 106c-25 15 -40 41 -40 82c0 42 27 74 62 90c-23 28 -38 67 -38 111zM312 40h-103c-18 0 -34 1 -49 3c-34 -22 -45 -57 -45 -91c0 -65 48 -108 148 -108c99 0 147 48 147 110c0 63 -39 86 -98 86zM153 343c0 -73 51 -115 109 -115
s109 42 109 115s-51 115 -109 115s-109 -42 -109 -115zM235 766l61 -184h-49l-115 184h103z" />
    <glyph glyph-name="Hcircumflex" unicode="&#x124;" horiz-adv-x="690" 
d="M523 700h66v-700h-66v341h-356v-341h-66v700h66v-297h356v297zM190 762l144 151h22l144 -151h-72l-83 89l-83 -89h-72z" />
    <glyph glyph-name="hcircumflex" unicode="&#x125;" horiz-adv-x="585" 
d="M495 346v-346h-62v338c0 73 -36 116 -105 116c-92 0 -170 -93 -170 -239v-215h-62v708h62v-314c35 81 111 118 180 118c99 0 157 -60 157 -166zM100 762l144 151h22l144 -151h-72l-83 89l-83 -89h-72z" />
    <glyph glyph-name="Hbar" unicode="&#x126;" horiz-adv-x="690" 
d="M32 525v58h69v117h66v-117h356v117h66v-117h69v-58h-69v-525h-66v341h-356v-341h-66v525h-69zM167 403h356v122h-356v-122z" />
    <glyph glyph-name="hbar" unicode="&#x127;" horiz-adv-x="585" 
d="M23 578v56h73v74h62v-74h135v-56h-135v-184c35 81 111 118 180 118c99 0 157 -60 157 -166v-346h-62v338c0 73 -36 116 -105 116c-92 0 -170 -93 -170 -239v-215h-62v578h-73z" />
    <glyph glyph-name="Itilde" unicode="&#x128;" horiz-adv-x="268" 
d="M167 700v-700h-66v700h66zM6 789l-40 31c23 42 59 69 99 69c67 0 83 -41 131 -41c30 0 49 14 67 36l40 -31c-23 -42 -59 -69 -99 -69c-67 0 -83 41 -131 41c-30 0 -49 -14 -67 -36z" />
    <glyph glyph-name="itilde" unicode="&#x129;" horiz-adv-x="280" 
d="M109 504h62v-504h-62v504zM12 593l-40 31c23 42 59 69 99 69c67 0 83 -41 131 -41c30 0 49 14 67 36l40 -31c-23 -42 -59 -69 -99 -69c-67 0 -83 41 -131 41c-30 0 -49 -14 -67 -36z" />
    <glyph glyph-name="Imacron" unicode="&#x12a;" horiz-adv-x="268" 
d="M167 700v-700h-66v700h66zM14 813v56h241v-56h-241z" />
    <glyph glyph-name="imacron" unicode="&#x12b;" horiz-adv-x="280" 
d="M109 504h62v-504h-62v504zM20 616v56h241v-56h-241z" />
    <glyph glyph-name="Ibreve" unicode="&#x12c;" horiz-adv-x="268" 
d="M167 700v-700h-66v700h66zM188 896h51c0 -64 -38 -109 -105 -109c-65 0 -105 45 -105 109h51c0 -34 18 -59 54 -59c38 0 54 25 54 59z" />
    <glyph glyph-name="ibreve" unicode="&#x12d;" horiz-adv-x="280" 
d="M109 504h62v-504h-62v504zM194 700h51c0 -64 -38 -109 -105 -109c-65 0 -105 45 -105 109h51c0 -34 18 -59 54 -59c38 0 54 25 54 59z" />
    <glyph glyph-name="Iogonek" unicode="&#x12e;" horiz-adv-x="268" 
d="M112 0h-11v700h66v-700c-36 -33 -56 -55 -56 -80c0 -21 13 -33 33 -33c22 0 37 15 57 42l39 -31c-34 -45 -60 -67 -106 -67c-49 0 -79 31 -79 77c0 32 19 65 57 92z" />
    <glyph glyph-name="iogonek" unicode="&#x12f;" horiz-adv-x="280" 
d="M110 0v504h62v-504c-36 -33 -56 -55 -56 -80c0 -21 13 -33 33 -33c22 0 37 15 57 42l39 -31c-34 -45 -60 -67 -106 -67c-49 0 -79 31 -79 77c0 32 19 66 50 92zM90 649c0 29 22 51 51 51s51 -22 51 -51s-22 -51 -51 -51s-51 22 -51 51z" />
    <glyph glyph-name="Idotaccent" unicode="&#x130;" horiz-adv-x="268" 
d="M167 700v-700h-66v700h66zM83 841c0 29 22 51 51 51s51 -22 51 -51s-22 -51 -51 -51s-51 22 -51 51z" />
    <glyph glyph-name="IJ" unicode="&#x132;" horiz-adv-x="765" 
d="M167 700v-700h-66v700h66zM612 198v502h66v-495c0 -140 -94 -213 -197 -213c-125 0 -185 87 -198 179l68 15c11 -79 52 -132 130 -132c73 0 131 44 131 144z" />
    <glyph glyph-name="ij" unicode="&#x133;" horiz-adv-x="516" 
d="M90 649c0 29 22 51 51 51s51 -22 51 -51s-22 -51 -51 -51s-51 22 -51 51zM110 504h62v-504h-62v504zM346 504h62v-568c0 -89 -45 -135 -125 -148l-14 58c53 15 77 38 77 99v559zM326 649c0 29 22 51 51 51s51 -22 51 -51s-22 -51 -51 -51s-51 22 -51 51z" />
    <glyph glyph-name="Jcircumflex" unicode="&#x134;" horiz-adv-x="497" 
d="M344 198v502h66v-495c0 -140 -94 -213 -197 -213c-125 0 -185 87 -198 179l68 15c11 -79 52 -132 130 -132c73 0 131 44 131 144zM222 762l144 151h22l144 -151h-72l-83 89l-83 -89h-72z" />
    <glyph glyph-name="jcircumflex" unicode="&#x135;" horiz-adv-x="280" 
d="M110 504h62v-568c0 -89 -45 -135 -125 -148l-14 58c53 15 77 38 77 99v559zM-15 566l144 151h22l144 -151h-72l-83 89l-83 -89h-72z" />
    <glyph glyph-name="uni0136" unicode="&#x136;" horiz-adv-x="565" 
d="M549 0h-81l-301 371v-371h-66v700h66v-299l273 299h84l-287 -314zM219 -217l50 165h92l-96 -165h-46z" />
    <glyph glyph-name="uni0137" unicode="&#x137;" horiz-adv-x="482" 
d="M96 708h62v-427l211 223h78l-218 -231l236 -273h-79l-228 265v-265h-62v708zM186 -217l50 165h92l-96 -165h-46z" />
    <glyph glyph-name="kgreenlandic" unicode="&#x138;" horiz-adv-x="482" 
d="M96 504h62v-223l211 223h78l-218 -231l236 -273h-79l-228 265v-265h-62v504z" />
    <glyph glyph-name="Lacute" unicode="&#x139;" horiz-adv-x="515" 
d="M101 700h66v-638h328v-62h-394v700zM102 756l70 140h93l-114 -140h-49z" />
    <glyph glyph-name="lacute" unicode="&#x13a;" horiz-adv-x="244" 
d="M94 708h62v-708h-62v708zM96 756l70 140h93l-114 -140h-49z" />
    <glyph glyph-name="uni013B" unicode="&#x13b;" horiz-adv-x="515" 
d="M101 700h66v-638h328v-62h-394v700zM221 -217l50 165h92l-96 -165h-46z" />
    <glyph glyph-name="uni013C" unicode="&#x13c;" horiz-adv-x="244" 
d="M94 708h62v-708h-62v708zM29 -217l50 165h92l-96 -165h-46z" />
    <glyph glyph-name="Lcaron" unicode="&#x13d;" horiz-adv-x="515" 
d="M101 700h66v-638h328v-62h-394v700zM321 516l61 184h103l-115 -184h-49z" />
    <glyph glyph-name="lcaron" unicode="&#x13e;" horiz-adv-x="423" 
d="M94 708h62v-708h-62v708zM243 524l61 184h103l-115 -184h-49z" />
    <glyph glyph-name="Ldot" unicode="&#x13f;" horiz-adv-x="515" 
d="M101 700h66v-638h328v-62h-394v700zM325 349c0 29 21 51 51 51c29 0 51 -22 51 -51c0 -30 -22 -51 -51 -51c-30 0 -51 21 -51 51z" />
    <glyph glyph-name="ldot" unicode="&#x140;" horiz-adv-x="438" 
d="M94 708h62v-708h-62v708zM254 349c0 29 21 51 51 51c29 0 51 -22 51 -51c0 -30 -22 -51 -51 -51c-30 0 -51 21 -51 51z" />
    <glyph glyph-name="Nacute" unicode="&#x143;" horiz-adv-x="693" 
d="M526 700h66v-700h-78l-347 593v-593h-66v700h78l347 -595v595zM285 756l70 140h93l-114 -140h-49z" />
    <glyph glyph-name="nacute" unicode="&#x144;" horiz-adv-x="576" 
d="M486 346v-346h-62v338c0 73 -33 116 -103 116c-92 0 -163 -90 -163 -233v-221h-62v504h62v-105c34 66 100 113 173 113c95 0 155 -60 155 -166zM206 560l70 140h93l-114 -140h-49z" />
    <glyph glyph-name="uni0145" unicode="&#x145;" horiz-adv-x="693" 
d="M526 700h66v-700h-78l-347 593v-593h-66v700h78l347 -595v595zM249 -217l50 165h92l-96 -165h-46z" />
    <glyph glyph-name="uni0146" unicode="&#x146;" horiz-adv-x="576" 
d="M486 346v-346h-62v338c0 73 -33 116 -103 116c-92 0 -163 -90 -163 -233v-221h-62v504h62v-105c34 66 100 113 173 113c95 0 155 -60 155 -166zM202 -217l50 165h92l-96 -165h-46z" />
    <glyph glyph-name="Ncaron" unicode="&#x147;" horiz-adv-x="693" 
d="M526 700h66v-700h-78l-347 593v-593h-66v700h78l347 -595v595zM329 762l-144 151h72l83 -89l83 89h72l-144 -151h-22z" />
    <glyph glyph-name="ncaron" unicode="&#x148;" horiz-adv-x="576" 
d="M486 346v-346h-62v338c0 73 -33 116 -103 116c-92 0 -163 -90 -163 -233v-221h-62v504h62v-105c34 66 100 113 173 113c95 0 155 -60 155 -166zM279 566l-144 151h72l83 -89l83 89h72l-144 -151h-22z" />
    <glyph glyph-name="napostrophe" unicode="&#x149;" horiz-adv-x="681" 
d="M591 346v-346h-62v338c0 73 -33 116 -103 116c-92 0 -163 -90 -163 -233v-221h-62v504h62v-105c34 66 100 113 173 113c95 0 155 -60 155 -166zM51 524l61 184h103l-115 -184h-49z" />
    <glyph glyph-name="Eng" unicode="&#x14a;" horiz-adv-x="693" 
d="M526 -6v6l-359 593v-593h-66v700h78l347 -577v577h66v-699c0 -148 -78 -213 -188 -213v62c73 0 122 38 122 144z" />
    <glyph glyph-name="eng" unicode="&#x14b;" horiz-adv-x="576" 
d="M424 338c0 73 -33 116 -103 116c-92 0 -163 -90 -163 -233v-221h-62v504h62v-105c34 66 100 113 173 113c95 0 155 -60 155 -166v-410c0 -89 -45 -135 -125 -148l-14 58c53 15 77 38 77 99v393z" />
    <glyph glyph-name="Omacron" unicode="&#x14c;" horiz-adv-x="732" 
d="M366 708c164 0 307 -136 307 -358s-143 -358 -307 -358s-307 136 -307 358s143 358 307 358zM366 646c-131 0 -238 -100 -238 -296s107 -296 238 -296s238 100 238 296s-107 296 -238 296zM246 813v56h241v-56h-241z" />
    <glyph glyph-name="omacron" unicode="&#x14d;" 
d="M56 252c0 132 89 260 236 260s236 -128 236 -260s-89 -260 -236 -260s-236 128 -236 260zM121 252c0 -101 58 -202 171 -202s171 101 171 202s-58 202 -171 202s-171 -101 -171 -202zM172 616v56h241v-56h-241z" />
    <glyph glyph-name="Obreve" unicode="&#x14e;" horiz-adv-x="732" 
d="M366 708c164 0 307 -136 307 -358s-143 -358 -307 -358s-307 136 -307 358s143 358 307 358zM366 646c-131 0 -238 -100 -238 -296s107 -296 238 -296s238 100 238 296s-107 296 -238 296zM420 896h51c0 -64 -38 -109 -105 -109c-65 0 -105 45 -105 109h51
c0 -34 18 -59 54 -59c38 0 54 25 54 59z" />
    <glyph glyph-name="obreve" unicode="&#x14f;" 
d="M56 252c0 132 89 260 236 260s236 -128 236 -260s-89 -260 -236 -260s-236 128 -236 260zM121 252c0 -101 58 -202 171 -202s171 101 171 202s-58 202 -171 202s-171 -101 -171 -202zM346 700h51c0 -64 -38 -109 -105 -109c-65 0 -105 45 -105 109h51
c0 -34 18 -59 54 -59c38 0 54 25 54 59z" />
    <glyph glyph-name="Ohungarumlaut" unicode="&#x150;" horiz-adv-x="732" 
d="M366 708c164 0 307 -136 307 -358s-143 -358 -307 -358s-307 136 -307 358s143 358 307 358zM366 646c-131 0 -238 -100 -238 -296s107 -296 238 -296s238 100 238 296s-107 296 -238 296zM238 756l70 140h93l-114 -140h-49zM390 756l70 140h93l-114 -140h-49z" />
    <glyph glyph-name="ohungarumlaut" unicode="&#x151;" 
d="M56 252c0 132 89 260 236 260s236 -128 236 -260s-89 -260 -236 -260s-236 128 -236 260zM121 252c0 -101 58 -202 171 -202s171 101 171 202s-58 202 -171 202s-171 -101 -171 -202zM164 560l70 140h93l-114 -140h-49zM316 560l70 140h93l-114 -140h-49z" />
    <glyph glyph-name="Racute" unicode="&#x154;" horiz-adv-x="636" 
d="M517 0l-219 346h-131v-346h-66v700h225c124 0 200 -58 200 -177c0 -103 -57 -161 -153 -174l218 -349h-74zM322 638h-155v-230h155c90 0 137 35 137 115s-47 115 -137 115zM219 756l70 140h93l-114 -140h-49z" />
    <glyph glyph-name="racute" unicode="&#x155;" horiz-adv-x="399" 
d="M382 495l-14 -59c-22 12 -45 18 -71 18c-77 0 -139 -87 -139 -259v-195h-62v504h62v-90c30 62 80 98 148 98c29 0 51 -7 76 -17zM188 560l70 140h93l-114 -140h-49z" />
    <glyph glyph-name="uni0156" unicode="&#x156;" horiz-adv-x="636" 
d="M517 0l-219 346h-131v-346h-66v700h225c124 0 200 -58 200 -177c0 -103 -57 -161 -153 -174l218 -349h-74zM322 638h-155v-230h155c90 0 137 35 137 115s-47 115 -137 115zM241 -217l50 165h92l-96 -165h-46z" />
    <glyph glyph-name="uni0157" unicode="&#x157;" horiz-adv-x="399" 
d="M382 495l-14 -59c-22 12 -45 18 -71 18c-77 0 -139 -87 -139 -259v-195h-62v504h62v-90c30 62 80 98 148 98c29 0 51 -7 76 -17zM121 -217l50 165h92l-96 -165h-46z" />
    <glyph glyph-name="Rcaron" unicode="&#x158;" horiz-adv-x="636" 
d="M517 0l-219 346h-131v-346h-66v700h225c124 0 200 -58 200 -177c0 -103 -57 -161 -153 -174l218 -349h-74zM322 638h-155v-230h155c90 0 137 35 137 115s-47 115 -137 115zM276 762l-144 151h72l83 -89l83 89h72l-144 -151h-22z" />
    <glyph glyph-name="rcaron" unicode="&#x159;" horiz-adv-x="399" 
d="M382 495l-14 -59c-22 12 -45 18 -71 18c-77 0 -139 -87 -139 -259v-195h-62v504h62v-90c30 62 80 98 148 98c29 0 51 -7 76 -17zM218 566l-144 151h72l83 -89l83 89h72l-144 -151h-22z" />
    <glyph glyph-name="Sacute" unicode="&#x15a;" horiz-adv-x="506" 
d="M418 600l-54 -34c-33 63 -73 80 -116 80c-65 0 -97 -53 -97 -102c0 -171 305 -116 305 -347c0 -126 -87 -205 -200 -205c-117 0 -191 80 -214 189l57 34c23 -83 60 -161 157 -161c75 0 131 47 131 141c0 174 -302 130 -302 341c0 104 75 172 163 172
c102 0 137 -48 170 -108zM201 756l70 140h93l-114 -140h-49z" />
    <glyph glyph-name="sacute" unicode="&#x15b;" horiz-adv-x="450" 
d="M230 512c64 0 106 -30 140 -78l-44 -38c-31 41 -59 58 -99 58c-43 0 -74 -30 -74 -76c0 -102 239 -82 239 -228c0 -97 -60 -158 -156 -158c-107 0 -162 72 -182 138l55 29c22 -61 53 -109 127 -109c59 0 91 35 91 90c0 115 -238 79 -238 237c0 81 61 135 141 135z
M173 560l70 140h93l-114 -140h-49z" />
    <glyph glyph-name="Scircumflex" unicode="&#x15c;" horiz-adv-x="506" 
d="M418 600l-54 -34c-33 63 -73 80 -116 80c-65 0 -97 -53 -97 -102c0 -171 305 -116 305 -347c0 -126 -87 -205 -200 -205c-117 0 -191 80 -214 189l57 34c23 -83 60 -161 157 -161c75 0 131 47 131 141c0 174 -302 130 -302 341c0 104 75 172 163 172
c102 0 137 -48 170 -108zM95 762l144 151h22l144 -151h-72l-83 89l-83 -89h-72z" />
    <glyph glyph-name="scircumflex" unicode="&#x15d;" horiz-adv-x="450" 
d="M230 512c64 0 106 -30 140 -78l-44 -38c-31 41 -59 58 -99 58c-43 0 -74 -30 -74 -76c0 -102 239 -82 239 -228c0 -97 -60 -158 -156 -158c-107 0 -162 72 -182 138l55 29c22 -61 53 -109 127 -109c59 0 91 35 91 90c0 115 -238 79 -238 237c0 81 61 135 141 135zM75 566
l144 151h22l144 -151h-72l-83 89l-83 -89h-72z" />
    <glyph glyph-name="Scedilla" unicode="&#x15e;" horiz-adv-x="506" 
d="M418 600l-54 -34c-33 63 -73 80 -116 80c-65 0 -97 -53 -97 -102c0 -171 305 -116 305 -347c0 -126 -87 -205 -200 -205c-117 0 -191 80 -214 189l57 34c23 -83 60 -161 157 -161c75 0 131 47 131 141c0 174 -302 130 -302 341c0 104 75 172 163 172
c102 0 137 -48 170 -108zM299 -60l-81 -154l-72 31l98 123h55z" />
    <glyph glyph-name="scedilla" unicode="&#x15f;" horiz-adv-x="450" 
d="M230 512c64 0 106 -30 140 -78l-44 -38c-31 41 -59 58 -99 58c-43 0 -74 -30 -74 -76c0 -102 239 -82 239 -228c0 -97 -60 -158 -156 -158c-107 0 -162 72 -182 138l55 29c22 -61 53 -109 127 -109c59 0 91 35 91 90c0 115 -238 79 -238 237c0 81 61 135 141 135z
M290 -60l-81 -154l-72 31l98 123h55z" />
    <glyph glyph-name="uni0162" unicode="&#x162;" horiz-adv-x="516" 
d="M16 638v62h484v-62h-209v-638h-66v638h-209zM160 -217l50 165h92l-96 -165h-46z" />
    <glyph glyph-name="uni0163" unicode="&#x163;" horiz-adv-x="371" 
d="M27 446v58h89v163l62 41v-204h136v-58h-136v-313c0 -57 29 -83 72 -83c20 0 44 4 63 16l17 -56c-24 -13 -57 -18 -88 -18c-73 0 -126 45 -126 151v303h-89zM141 -217l50 165h92l-96 -165h-46z" />
    <glyph glyph-name="Tcaron" unicode="&#x164;" horiz-adv-x="516" 
d="M16 638v62h484v-62h-209v-638h-66v638h-209zM247 762l-144 151h72l83 -89l83 89h72l-144 -151h-22z" />
    <glyph glyph-name="tcaron" unicode="&#x165;" horiz-adv-x="552" 
d="M27 446v58h89v163l62 41v-204h136v-58h-136v-313c0 -57 29 -83 72 -83c20 0 44 4 63 16l17 -56c-24 -13 -57 -18 -88 -18c-73 0 -126 45 -126 151v303h-89zM393 524l61 184h103l-115 -184h-49z" />
    <glyph glyph-name="Tbar" unicode="&#x166;" horiz-adv-x="516" 
d="M47 401v58h178v179h-209v62h484v-62h-209v-179h178v-58h-178v-401h-66v401h-178z" />
    <glyph glyph-name="tbar" unicode="&#x167;" horiz-adv-x="371" 
d="M27 446v58h89v163l62 41v-204h136v-58h-136v-125h121v-56h-121v-132c0 -57 29 -83 72 -83c20 0 44 4 63 16l17 -56c-24 -13 -57 -18 -88 -18c-73 0 -126 45 -126 151v122h-74v56h74v125h-89z" />
    <glyph glyph-name="Utilde" unicode="&#x168;" horiz-adv-x="654" 
d="M87 224v476h66v-482c0 -87 57 -164 174 -164s174 77 174 164v482h66v-476c0 -154 -113 -232 -240 -232s-240 78 -240 232zM199 789l-40 31c23 42 59 69 99 69c67 0 83 -41 131 -41c30 0 49 14 67 36l40 -31c-23 -42 -59 -69 -99 -69c-67 0 -83 41 -131 41
c-30 0 -49 -14 -67 -36z" />
    <glyph glyph-name="utilde" unicode="&#x169;" horiz-adv-x="576" 
d="M90 158v346h62v-338c0 -73 33 -116 103 -116c92 0 163 90 163 233v221h62v-504h-62v105c-34 -66 -100 -113 -173 -113c-95 0 -155 60 -155 166zM159 593l-40 31c23 42 59 69 99 69c67 0 83 -41 131 -41c30 0 49 14 67 36l40 -31c-23 -42 -59 -69 -99 -69
c-67 0 -83 41 -131 41c-30 0 -49 -14 -67 -36z" />
    <glyph glyph-name="Umacron" unicode="&#x16a;" horiz-adv-x="654" 
d="M87 224v476h66v-482c0 -87 57 -164 174 -164s174 77 174 164v482h66v-476c0 -154 -113 -232 -240 -232s-240 78 -240 232zM207 813v56h241v-56h-241z" />
    <glyph glyph-name="umacron" unicode="&#x16b;" horiz-adv-x="576" 
d="M90 158v346h62v-338c0 -73 33 -116 103 -116c92 0 163 90 163 233v221h62v-504h-62v105c-34 -66 -100 -113 -173 -113c-95 0 -155 60 -155 166zM162 616v56h241v-56h-241z" />
    <glyph glyph-name="Ubreve" unicode="&#x16c;" horiz-adv-x="654" 
d="M87 224v476h66v-482c0 -87 57 -164 174 -164s174 77 174 164v482h66v-476c0 -154 -113 -232 -240 -232s-240 78 -240 232zM381 896h51c0 -64 -38 -109 -105 -109c-65 0 -105 45 -105 109h51c0 -34 18 -59 54 -59c38 0 54 25 54 59z" />
    <glyph glyph-name="ubreve" unicode="&#x16d;" horiz-adv-x="576" 
d="M90 158v346h62v-338c0 -73 33 -116 103 -116c92 0 163 90 163 233v221h62v-504h-62v105c-34 -66 -100 -113 -173 -113c-95 0 -155 60 -155 166zM333 700h51c0 -64 -38 -109 -105 -109c-65 0 -105 45 -105 109h51c0 -34 18 -59 54 -59c38 0 54 25 54 59z" />
    <glyph glyph-name="Uring" unicode="&#x16e;" horiz-adv-x="654" 
d="M87 224v476h66v-482c0 -87 57 -164 174 -164s174 77 174 164v482h66v-476c0 -154 -113 -232 -240 -232s-240 78 -240 232zM230 849c0 55 42 98 97 98c57 0 97 -43 97 -98c0 -53 -40 -94 -97 -94c-55 0 -97 41 -97 94zM276 850c0 -30 21 -52 51 -52c31 0 51 22 51 52
c0 31 -20 54 -51 54c-30 0 -51 -23 -51 -54z" />
    <glyph glyph-name="uring" unicode="&#x16f;" horiz-adv-x="576" 
d="M90 158v346h62v-338c0 -73 33 -116 103 -116c92 0 163 90 163 233v221h62v-504h-62v105c-34 -66 -100 -113 -173 -113c-95 0 -155 60 -155 166zM189 653c0 55 42 98 97 98c57 0 97 -43 97 -98c0 -53 -40 -94 -97 -94c-55 0 -97 41 -97 94zM235 654c0 -30 21 -52 51 -52
c31 0 51 22 51 52c0 31 -20 54 -51 54c-30 0 -51 -23 -51 -54z" />
    <glyph glyph-name="Uhungarumlaut" unicode="&#x170;" horiz-adv-x="654" 
d="M87 224v476h66v-482c0 -87 57 -164 174 -164s174 77 174 164v482h66v-476c0 -154 -113 -232 -240 -232s-240 78 -240 232zM191 756l70 140h93l-114 -140h-49zM343 756l70 140h93l-114 -140h-49z" />
    <glyph glyph-name="uhungarumlaut" unicode="&#x171;" horiz-adv-x="576" 
d="M90 158v346h62v-338c0 -73 33 -116 103 -116c92 0 163 90 163 233v221h62v-504h-62v105c-34 -66 -100 -113 -173 -113c-95 0 -155 60 -155 166zM157 560l70 140h93l-114 -140h-49zM309 560l70 140h93l-114 -140h-49z" />
    <glyph glyph-name="Uogonek" unicode="&#x172;" horiz-adv-x="654" 
d="M87 224v476h66v-482c0 -87 57 -164 174 -164s174 77 174 164v482h66v-476c0 -127 -76 -202 -174 -224c-35 -33 -55 -55 -55 -80c0 -21 13 -33 33 -33c22 0 37 15 57 42l39 -31c-34 -45 -60 -67 -106 -67c-49 0 -79 31 -79 77c0 29 15 59 46 84c-128 0 -241 78 -241 232z
" />
    <glyph glyph-name="uogonek" unicode="&#x173;" horiz-adv-x="576" 
d="M418 0v105c-34 -66 -100 -113 -173 -113c-95 0 -155 60 -155 166v346h62v-338c0 -73 33 -116 103 -116c92 0 163 90 163 233v221h62v-504c-36 -33 -56 -55 -56 -80c0 -21 13 -33 33 -33c22 0 37 15 57 42l39 -31c-34 -45 -60 -67 -106 -67c-49 0 -79 31 -79 77
c0 34 15 63 50 92z" />
    <glyph glyph-name="Wcircumflex" unicode="&#x174;" horiz-adv-x="899" 
d="M799 700h68l-192 -700h-67l-159 524l-158 -524h-67l-192 700h68l159 -598l161 524h59l161 -524zM294 762l144 151h22l144 -151h-72l-83 89l-83 -89h-72z" />
    <glyph glyph-name="wcircumflex" unicode="&#x175;" horiz-adv-x="718" 
d="M614 504h65l-151 -504h-64l-105 412l-105 -412h-64l-151 504h65l118 -416l106 416h62l106 -416zM204 566l144 151h22l144 -151h-72l-83 89l-83 -89h-72z" />
    <glyph glyph-name="Ycircumflex" unicode="&#x176;" horiz-adv-x="500" 
d="M217 304l-211 396h77l167 -331l167 331h77l-211 -396v-304h-66v304zM95 762l144 151h22l144 -151h-72l-83 89l-83 -89h-72z" />
    <glyph glyph-name="ycircumflex" unicode="&#x177;" horiz-adv-x="452" 
d="M372 504h65l-250 -708h-62l73 207l-181 501h65l150 -408zM77 566l144 151h22l144 -151h-72l-83 89l-83 -89h-72z" />
    <glyph glyph-name="Zacute" unicode="&#x179;" horiz-adv-x="548" 
d="M60 638v62h428v-32l-348 -606h355v-62h-447v32l352 606h-340zM208 756l70 140h93l-114 -140h-49z" />
    <glyph glyph-name="zacute" unicode="&#x17a;" horiz-adv-x="456" 
d="M68 446v58h327v-34l-254 -412h265v-58h-350v30l257 416h-245zM174 560l70 140h93l-114 -140h-49z" />
    <glyph glyph-name="Zdotaccent" unicode="&#x17b;" horiz-adv-x="548" 
d="M60 638v62h428v-32l-348 -606h355v-62h-447v32l352 606h-340zM219 841c0 29 22 51 51 51s51 -22 51 -51s-22 -51 -51 -51s-51 22 -51 51z" />
    <glyph glyph-name="zdotaccent" unicode="&#x17c;" horiz-adv-x="456" 
d="M68 446v58h327v-34l-254 -412h265v-58h-350v30l257 416h-245zM184 649c0 29 22 51 51 51s51 -22 51 -51s-22 -51 -51 -51s-51 22 -51 51z" />
    <glyph glyph-name="longs" unicode="&#x17f;" horiz-adv-x="359" 
d="M50 446v58h80v32c0 118 58 172 156 172c25 0 47 -6 60 -13l-13 -57c-13 6 -28 12 -52 12c-55 0 -89 -33 -89 -104v-546h-62v446h-80z" />
    <glyph glyph-name="uni01B5" unicode="&#x1b5;" horiz-adv-x="548" 
d="M60 638v62h428v-32l-159 -277h134v-58h-168l-155 -271h355v-62h-447v32l175 301h-139v58h172l144 247h-340z" />
    <glyph glyph-name="uni01B6" unicode="&#x1b6;" horiz-adv-x="456" 
d="M68 446v58h327v-34l-110 -178h90v-56h-124l-110 -178h265v-58h-350v30l127 206h-100v56h135l95 154h-245z" />
    <glyph glyph-name="uni0410" unicode="&#x410;" 
d="M263 700h58l253 -700h-68l-70 199h-288l-70 -199h-68zM292 610l-123 -349h246z" />
    <glyph glyph-name="uni0411" unicode="&#x411;" horiz-adv-x="616" 
d="M167 342v-280h162c101 0 159 37 159 140s-58 140 -159 140h-162zM342 404c132 0 215 -79 215 -202s-83 -202 -215 -202h-241v700h389v-62h-323v-234h175z" />
    <glyph glyph-name="uni0412" unicode="&#x412;" horiz-adv-x="616" 
d="M101 700h225c123 0 195 -67 195 -180c0 -65 -43 -117 -88 -137c68 -24 124 -81 124 -181c0 -123 -83 -202 -215 -202h-241v700zM167 342v-280h162c101 0 159 37 159 140s-58 140 -159 140h-162zM326 638h-159v-234h159c81 0 127 38 127 117s-46 117 -127 117z" />
    <glyph glyph-name="uni0413" unicode="&#x413;" horiz-adv-x="522" 
d="M167 638v-638h-66v700h405v-62h-339z" />
    <glyph glyph-name="uni0414" unicode="&#x414;" horiz-adv-x="693" 
d="M72 -124l-12 186h49l103 638h360v-638h61l-12 -186h-64v124h-421v-124h-64zM506 638h-240l-87 -576h327v576z" />
    <glyph glyph-name="uni0415" unicode="&#x415;" horiz-adv-x="568" 
d="M101 700h395v-62h-329v-234h269v-62h-269v-280h339v-62h-405v700z" />
    <glyph glyph-name="uni0416" unicode="&#x416;" horiz-adv-x="862" 
d="M97 0h-81l312 386l-289 314h84l275 -299v299h66v-299l275 299h84l-289 -314l312 -386h-81l-301 371v-371h-66v371z" />
    <glyph glyph-name="uni0417" unicode="&#x417;" horiz-adv-x="573" 
d="M63 192l62 9c10 -89 61 -153 153 -153c103 0 157 65 157 166c0 108 -58 167 -157 167c-21 0 -43 -6 -62 -18l-30 39l181 242h-269v56h366v-17l-189 -251c6 2 20 3 26 3c102 0 198 -79 198 -221c0 -131 -83 -222 -221 -222c-113 0 -202 71 -215 200z" />
    <glyph glyph-name="uni0418" unicode="&#x418;" horiz-adv-x="693" 
d="M101 700h66v-595l347 595h78v-700h-66v593l-347 -593h-78v700z" />
    <glyph glyph-name="uni0419" unicode="&#x419;" horiz-adv-x="693" 
d="M101 700h66v-595l347 595h78v-700h-66v593l-347 -593h-78v700zM400 896h51c0 -64 -38 -109 -105 -109c-65 0 -105 45 -105 109h51c0 -34 18 -59 54 -59c38 0 54 25 54 59z" />
    <glyph glyph-name="uni041A" unicode="&#x41a;" horiz-adv-x="565" 
d="M549 0h-81l-301 371v-371h-66v700h66v-299l273 299h84l-287 -314z" />
    <glyph glyph-name="uni041B" unicode="&#x41b;" horiz-adv-x="642" 
d="M130 179l38 521h373v-700h-66v638h-248l-34 -465c-8 -112 -56 -173 -175 -173v62c65 0 105 22 112 117z" />
    <glyph glyph-name="uni041C" unicode="&#x41c;" horiz-adv-x="782" 
d="M101 700h82l208 -527l208 527h82v-700h-66v572l-203 -508h-42l-203 508v-572h-66v700z" />
    <glyph glyph-name="uni041D" unicode="&#x41d;" horiz-adv-x="690" 
d="M523 700h66v-700h-66v341h-356v-341h-66v700h66v-297h356v297z" />
    <glyph glyph-name="uni041E" unicode="&#x41e;" horiz-adv-x="732" 
d="M366 708c164 0 307 -136 307 -358s-143 -358 -307 -358s-307 136 -307 358s143 358 307 358zM366 646c-131 0 -238 -100 -238 -296s107 -296 238 -296s238 100 238 296s-107 296 -238 296z" />
    <glyph glyph-name="uni041F" unicode="&#x41f;" horiz-adv-x="679" 
d="M512 0v638h-345v-638h-66v700h477v-700h-66z" />
    <glyph glyph-name="uni0420" unicode="&#x420;" horiz-adv-x="578" 
d="M339 314h-172v-314h-66v700h238c125 0 202 -72 202 -193s-77 -193 -202 -193zM340 376c96 0 132 57 132 131s-36 131 -132 131h-173v-262h173z" />
    <glyph glyph-name="uni0421" unicode="&#x421;" horiz-adv-x="680" 
d="M567 211l65 -19c-35 -122 -130 -200 -264 -200c-158 0 -309 115 -309 358s152 358 309 358c134 0 229 -78 264 -200l-65 -19c-26 97 -92 157 -199 157c-140 0 -240 -105 -240 -296s100 -296 240 -296c107 0 173 60 199 157z" />
    <glyph glyph-name="uni0422" unicode="&#x422;" horiz-adv-x="516" 
d="M16 638v62h484v-62h-209v-638h-66v638h-209z" />
    <glyph glyph-name="uni0423" unicode="&#x423;" horiz-adv-x="494" 
d="M136 -8l78 193l-212 515h69l177 -429l173 429h68l-289 -708h-64z" />
    <glyph glyph-name="uni0424" unicode="&#x424;" horiz-adv-x="762" 
d="M414 72v-72h-66v72h-7c-169 0 -287 110 -287 278s118 278 287 278h7v72h66v-72h10c169 0 284 -110 284 -278s-118 -278 -287 -278h-7zM424 570h-10v-440h10c136 0 219 94 219 220s-83 220 -219 220zM348 130v440h-10c-136 0 -219 -94 -219 -220s83 -220 219 -220h10z" />
    <glyph glyph-name="uni0425" unicode="&#x425;" horiz-adv-x="566" 
d="M433 700h69l-185 -314l228 -386h-69l-193 328l-193 -328h-69l228 386l-185 314h69l150 -255z" />
    <glyph glyph-name="uni0426" unicode="&#x426;" horiz-adv-x="690" 
d="M512 62v638h66v-638h64l-12 -186h-64v124h-465v700h66v-638h345z" />
    <glyph glyph-name="uni0427" unicode="&#x427;" horiz-adv-x="641" 
d="M474 0v255c-58 -41 -124 -59 -193 -59c-116 0 -194 61 -194 206v298h66v-293c0 -108 59 -149 144 -149c63 0 132 29 177 74v368h66v-700h-66z" />
    <glyph glyph-name="uni0428" unicode="&#x428;" horiz-adv-x="968" 
d="M801 62v638h66v-700h-766v700h66v-638h284v638h66v-638h284z" />
    <glyph glyph-name="uni0429" unicode="&#x429;" horiz-adv-x="976" 
d="M801 62v638h66v-638h61l-12 -186h-64v124h-751v700h66v-638h284v638h66v-638h284z" />
    <glyph glyph-name="uni042A" unicode="&#x42a;" horiz-adv-x="662" 
d="M22 638v62h191v-296h175c132 0 215 -79 215 -202s-83 -202 -215 -202h-241v638h-125zM213 342v-280h162c101 0 159 37 159 140s-58 140 -159 140h-162z" />
    <glyph glyph-name="uni042B" unicode="&#x42b;" horiz-adv-x="836" 
d="M101 0v700h66v-296h175c132 0 215 -79 215 -202s-83 -202 -215 -202h-241zM167 342v-280h162c101 0 159 37 159 140s-58 140 -159 140h-162zM673 708h62v-708h-62v708z" />
    <glyph glyph-name="uni042C" unicode="&#x42c;" horiz-adv-x="616" 
d="M101 0v700h66v-296h175c132 0 215 -79 215 -202s-83 -202 -215 -202h-241zM167 342v-280h162c101 0 159 37 159 140s-58 140 -159 140h-162z" />
    <glyph glyph-name="uni042D" unicode="&#x42d;" horiz-adv-x="659" 
d="M191 319v62h339c-9 166 -85 265 -217 265c-102 0 -176 -66 -202 -157l-63 19c34 118 136 200 265 200c159 0 287 -115 287 -358s-128 -358 -287 -358c-129 0 -231 82 -265 200l63 19c26 -91 100 -157 202 -157c132 0 208 99 217 265h-339z" />
    <glyph glyph-name="uni042E" unicode="&#x42e;" horiz-adv-x="1020" 
d="M654 708c164 0 307 -136 307 -358s-143 -358 -307 -358c-156 0 -294 124 -306 327h-181v-319h-66v700h66v-319h181c12 203 150 327 306 327zM654 646c-131 0 -238 -100 -238 -296s107 -296 238 -296s238 100 238 296s-107 296 -238 296z" />
    <glyph glyph-name="uni042F" unicode="&#x42f;" horiz-adv-x="636" 
d="M338 346l-219 -346h-74l218 349c-96 13 -153 71 -153 174c0 119 76 177 200 177h225v-700h-66v346h-131zM469 638h-155c-90 0 -137 -35 -137 -115s47 -115 137 -115h155v230z" />
    <glyph glyph-name="uni0430" unicode="&#x430;" horiz-adv-x="506" 
d="M122 145c0 -62 38 -95 98 -95c65 0 153 47 153 183v19h-82c-115 0 -169 -41 -169 -107zM435 334v-334h-47l-15 78c-28 -49 -79 -86 -159 -86c-84 0 -157 42 -157 153c0 112 91 165 232 165h84v22c0 88 -49 122 -116 122c-69 0 -105 -43 -120 -94l-60 14
c14 85 90 138 180 138c99 0 178 -64 178 -178z" />
    <glyph glyph-name="uni0431" unicode="&#x431;" horiz-adv-x="587" 
d="M56 310c0 289 102 390 256 390h37c57 0 71 12 81 47h49c-5 -73 -49 -105 -113 -105h-49c-131 0 -180 -99 -190 -212c35 42 95 82 187 82c135 0 217 -118 217 -260s-90 -260 -237 -260c-145 0 -238 107 -238 318zM122 252c0 -102 59 -202 172 -202s172 100 172 202
s-59 202 -172 202s-172 -100 -172 -202z" />
    <glyph glyph-name="uni0432" unicode="&#x432;" horiz-adv-x="501" 
d="M96 504h189c83 0 140 -47 140 -125c0 -49 -27 -84 -57 -103c45 -22 77 -62 77 -122c0 -89 -61 -154 -162 -154h-187v504zM158 240v-182h122c68 0 103 32 103 91s-35 91 -103 91h-122zM284 446h-126v-148h126c53 0 79 27 79 74s-26 74 -79 74z" />
    <glyph glyph-name="uni0433" unicode="&#x433;" horiz-adv-x="427" 
d="M96 0v504h310v-58h-246v-446h-64z" />
    <glyph glyph-name="uni0434" unicode="&#x434;" horiz-adv-x="573" 
d="M445 -114v114h-326v-114h-62l-12 172h33l70 446h334v-446h35l-10 -172h-62zM203 446l-58 -388h275v388h-217z" />
    <glyph glyph-name="uni0435" unicode="&#x435;" horiz-adv-x="552" 
d="M501 280v-28h-380c0 -118 58 -202 159 -202c77 0 118 33 155 108l55 -27c-52 -103 -117 -139 -210 -139c-134 0 -224 110 -224 260s90 260 224 260c130 0 221 -93 221 -232zM280 454c-84 0 -138 -62 -155 -144h312c-12 87 -66 144 -157 144z" />
    <glyph glyph-name="uni0436" unicode="&#x436;" horiz-adv-x="710" 
d="M324 504h62v-223l211 223h78l-218 -231l236 -273h-79l-228 265v-265h-62v265l-228 -265h-79l236 273l-218 231h78l211 -223v223z" />
    <glyph glyph-name="uni0437" unicode="&#x437;" horiz-adv-x="443" 
d="M57 138l61 7c7 -49 39 -95 104 -95c62 0 101 47 101 107c0 59 -32 107 -95 107c-14 0 -28 -3 -40 -8l-33 42l106 148h-181v58h281v-15l-132 -180c9 2 17 3 26 3c74 0 133 -62 133 -155c0 -90 -74 -165 -166 -165c-88 0 -157 59 -165 146z" />
    <glyph glyph-name="uni0438" unicode="&#x438;" horiz-adv-x="586" 
d="M96 504h62v-406l266 406h66v-504h-62v406l-266 -406h-66v504z" />
    <glyph glyph-name="uni0439" unicode="&#x439;" horiz-adv-x="586" 
d="M96 504h62v-406l266 406h66v-504h-62v406l-266 -406h-66v504zM347 700h51c0 -64 -38 -109 -105 -109c-65 0 -105 45 -105 109h51c0 -34 18 -59 54 -59c38 0 54 25 54 59z" />
    <glyph glyph-name="uni043A" unicode="&#x43a;" horiz-adv-x="482" 
d="M96 504h62v-223l211 223h78l-218 -231l236 -273h-79l-228 265v-265h-62v504z" />
    <glyph glyph-name="uni043B" unicode="&#x43b;" horiz-adv-x="596" 
d="M145 151l35 353h320v-504h-62v446h-200l-32 -310c-10 -93 -53 -136 -160 -136v58c73 0 93 29 99 93z" />
    <glyph glyph-name="uni043C" unicode="&#x43c;" horiz-adv-x="646" 
d="M96 504h84l143 -356l143 356h84v-504h-62v406l-143 -360h-44l-143 360v-406h-62v504z" />
    <glyph glyph-name="uni043D" unicode="&#x43d;" horiz-adv-x="562" 
d="M404 504h62v-504h-62v239h-246v-239h-62v504h62v-207h246v207z" />
    <glyph glyph-name="uni043E" unicode="&#x43e;" 
d="M56 252c0 132 89 260 236 260s236 -128 236 -260s-89 -260 -236 -260s-236 128 -236 260zM121 252c0 -101 58 -202 171 -202s171 101 171 202s-58 202 -171 202s-171 -101 -171 -202z" />
    <glyph glyph-name="uni043F" unicode="&#x43f;" horiz-adv-x="563" 
d="M96 0v504h371v-504h-62v446h-247v-446h-62z" />
    <glyph glyph-name="uni0440" unicode="&#x440;" horiz-adv-x="598" 
d="M158 -204h-62v708h62v-66c26 39 93 74 159 74c147 0 225 -116 225 -260s-78 -260 -225 -260c-54 0 -122 31 -159 79v-275zM477 252c0 114 -56 202 -163 202s-162 -88 -162 -202c0 -112 55 -202 162 -202s163 90 163 202z" />
    <glyph glyph-name="uni0441" unicode="&#x441;" horiz-adv-x="528" 
d="M426 153l56 -22c-35 -91 -104 -139 -203 -139c-148 0 -223 128 -223 260s75 260 223 260c99 0 168 -48 203 -139l-56 -22c-27 66 -72 103 -147 103c-108 0 -158 -93 -158 -202s50 -202 158 -202c75 0 120 37 147 103z" />
    <glyph glyph-name="uni0442" unicode="&#x442;" horiz-adv-x="430" 
d="M42 446v58h346v-58h-142v-446h-62v446h-142z" />
    <glyph glyph-name="uni0443" unicode="&#x443;" horiz-adv-x="452" 
d="M372 504h65l-250 -708h-62l73 207l-181 501h65l150 -408z" />
    <glyph glyph-name="uni0444" unicode="&#x444;" horiz-adv-x="698" 
d="M380 -8v-196h-62v196c-166 0 -262 122 -262 260s96 260 262 260v196h62v-196c166 0 262 -122 262 -260s-96 -260 -262 -260zM387 454h-7v-404h7c121 0 190 85 190 202s-69 202 -190 202zM318 50v404h-7c-121 0 -190 -85 -190 -202s69 -202 190 -202h7z" />
    <glyph glyph-name="uni0445" unicode="&#x445;" horiz-adv-x="446" 
d="M47 504h69l107 -174l107 174h69l-142 -229l170 -275h-65l-139 220l-139 -220h-65l170 275z" />
    <glyph glyph-name="uni0446" unicode="&#x446;" horiz-adv-x="558" 
d="M96 0v504h62v-446h247v446h62v-446h35l-10 -172h-62v114h-334z" />
    <glyph glyph-name="uni0447" unicode="&#x447;" horiz-adv-x="560" 
d="M464 0h-62v173c-48 -56 -109 -81 -170 -81c-86 0 -142 56 -142 142v270h62v-264c0 -65 40 -92 91 -92c67 0 117 40 159 104v252h62v-504z" />
    <glyph glyph-name="uni0448" unicode="&#x448;" horiz-adv-x="824" 
d="M96 0v504h62v-446h223v446h62v-446h223v446h62v-504h-632z" />
    <glyph glyph-name="uni0449" unicode="&#x449;" horiz-adv-x="819" 
d="M96 0v504h62v-446h223v446h62v-446h223v446h62v-446h35l-10 -172h-62v114h-595z" />
    <glyph glyph-name="uni044A" unicode="&#x44a;" horiz-adv-x="542" 
d="M45 446v58h165v-192h108c110 0 168 -60 168 -156s-58 -156 -168 -156h-170v446h-103zM291 254h-81v-196h81c89 0 126 30 126 98c0 67 -37 98 -126 98z" />
    <glyph glyph-name="uni044B" unicode="&#x44b;" horiz-adv-x="687" 
d="M96 0v504h62v-192h108c110 0 168 -60 168 -156s-58 -156 -168 -156h-170zM239 254h-81v-196h81c89 0 126 30 126 98c0 67 -37 98 -126 98zM537 504h62v-504h-62v504z" />
    <glyph glyph-name="uni044C" unicode="&#x44c;" horiz-adv-x="490" 
d="M96 0v504h62v-192h108c110 0 168 -60 168 -156s-58 -156 -168 -156h-170zM239 254h-81v-196h81c89 0 126 30 126 98c0 67 -37 98 -126 98z" />
    <glyph glyph-name="uni044D" unicode="&#x44d;" horiz-adv-x="523" 
d="M160 223v58h241c-7 96 -50 173 -148 173c-75 0 -122 -37 -149 -103l-58 26c40 89 111 135 205 135c148 0 216 -128 216 -260s-68 -260 -216 -260c-94 0 -165 46 -205 135l58 26c27 -66 74 -103 149 -103c98 0 141 77 148 173h-241z" />
    <glyph glyph-name="uni044E" unicode="&#x44e;" horiz-adv-x="837" 
d="M158 504v-223h152c12 121 98 231 235 231c147 0 236 -128 236 -260s-89 -260 -236 -260c-137 0 -223 110 -235 231h-152v-223h-62v504h62zM374 252c0 -101 58 -202 171 -202s171 101 171 202s-58 202 -171 202s-171 -101 -171 -202z" />
    <glyph glyph-name="uni044F" unicode="&#x44f;" horiz-adv-x="488" 
d="M60 365c0 85 68 139 160 139h172v-504h-62v226h-107l-122 -226h-69l130 232c-60 18 -102 64 -102 133zM217 284h113v162h-113c-59 0 -95 -25 -95 -81s36 -81 95 -81z" />
    <glyph glyph-name="uni0400" unicode="&#x400;" horiz-adv-x="568" 
d="M101 700h395v-62h-329v-234h269v-62h-269v-280h339v-62h-405v700zM292 896l70 -140h-49l-114 140h93z" />
    <glyph glyph-name="uni0401" unicode="&#x401;" horiz-adv-x="568" 
d="M101 700h395v-62h-329v-234h269v-62h-269v-280h339v-62h-405v700zM183 846c0 28 21 50 49 50s49 -22 49 -50c0 -27 -21 -48 -49 -48s-49 21 -49 48zM337 846c0 28 22 50 48 50c28 0 50 -22 50 -50c0 -27 -22 -48 -50 -48c-26 0 -48 21 -48 48z" />
    <glyph glyph-name="uni0402" unicode="&#x402;" horiz-adv-x="714" 
d="M628 346v-206c0 -89 -45 -135 -125 -148l-14 58c53 15 77 38 77 99v189c0 73 -36 116 -105 116c-92 0 -170 -93 -170 -239v-215h-66v638h-209v62h484v-62h-209v-244c35 81 111 118 180 118c99 0 157 -60 157 -166z" />
    <glyph glyph-name="uni0403" unicode="&#x403;" horiz-adv-x="522" 
d="M167 638v-638h-66v700h405v-62h-339zM246 756l70 140h93l-114 -140h-49z" />
    <glyph glyph-name="uni0404" unicode="&#x404;" horiz-adv-x="659" 
d="M468 381v-62h-340c9 -166 86 -265 218 -265c102 0 176 66 202 157l63 -19c-34 -118 -136 -200 -265 -200c-159 0 -287 115 -287 358s128 358 287 358c129 0 231 -82 265 -200l-63 -19c-26 91 -100 157 -202 157c-132 0 -209 -99 -218 -265h340z" />
    <glyph glyph-name="uni0405" unicode="&#x405;" horiz-adv-x="506" 
d="M418 600l-54 -34c-33 63 -73 80 -116 80c-65 0 -97 -53 -97 -102c0 -171 305 -116 305 -347c0 -126 -87 -205 -200 -205c-117 0 -191 80 -214 189l57 34c23 -83 60 -161 157 -161c75 0 131 47 131 141c0 174 -302 130 -302 341c0 104 75 172 163 172
c102 0 137 -48 170 -108z" />
    <glyph glyph-name="uni0406" unicode="&#x406;" horiz-adv-x="268" 
d="M167 700v-700h-66v700h66z" />
    <glyph glyph-name="uni0407" unicode="&#x407;" horiz-adv-x="268" 
d="M167 700v-700h-66v700h66zM8 846c0 28 21 50 49 50s49 -22 49 -50c0 -27 -21 -48 -49 -48s-49 21 -49 48zM162 846c0 28 22 50 48 50c28 0 50 -22 50 -50c0 -27 -22 -48 -50 -48c-26 0 -48 21 -48 48z" />
    <glyph glyph-name="uni0408" unicode="&#x408;" horiz-adv-x="497" 
d="M344 198v502h66v-495c0 -140 -94 -213 -197 -213c-125 0 -185 87 -198 179l68 15c11 -79 52 -132 130 -132c73 0 131 44 131 144z" />
    <glyph glyph-name="uni0409" unicode="&#x409;" horiz-adv-x="909" 
d="M128 179l36 521h300v-296h171c132 0 215 -79 215 -202s-83 -202 -215 -202h-237v638h-175l-32 -465c-8 -115 -56 -173 -175 -173v62c67 0 105 22 112 117zM464 342v-280h158c101 0 159 37 159 140s-58 140 -159 140h-158z" />
    <glyph glyph-name="uni040A" unicode="&#x40a;" horiz-adv-x="951" 
d="M677 404c132 0 215 -79 215 -202s-83 -202 -215 -202h-228v342h-282v-342h-66v700h66v-296h282v296h66v-296h162zM515 342v-280h149c101 0 159 37 159 140s-58 140 -159 140h-149z" />
    <glyph glyph-name="uni040B" unicode="&#x40b;" horiz-adv-x="718" 
d="M628 346v-346h-62v338c0 73 -36 116 -105 116c-92 0 -170 -93 -170 -239v-215h-66v638h-209v62h484v-62h-209v-244c35 81 111 118 180 118c99 0 157 -60 157 -166z" />
    <glyph glyph-name="uni040C" unicode="&#x40c;" horiz-adv-x="565" 
d="M549 0h-81l-301 371v-371h-66v700h66v-299l273 299h84l-287 -314zM241 756l70 140h93l-114 -140h-49z" />
    <glyph glyph-name="uni040D" unicode="&#x40d;" horiz-adv-x="693" 
d="M101 700h66v-595l347 595h78v-700h-66v593l-347 -593h-78v700zM333 896l70 -140h-49l-114 140h93z" />
    <glyph glyph-name="uni040E" unicode="&#x40e;" horiz-adv-x="494" 
d="M136 -8l78 193l-212 515h69l177 -429l173 429h68l-289 -708h-64zM287 896h51c0 -64 -38 -109 -105 -109c-65 0 -105 45 -105 109h51c0 -34 18 -59 54 -59c38 0 54 25 54 59z" />
    <glyph glyph-name="uni040F" unicode="&#x40f;" horiz-adv-x="682" 
d="M308 -124v124h-207v700h66v-638h348v638h66v-700h-207v-124h-66z" />
    <glyph glyph-name="uni0450" unicode="&#x450;" horiz-adv-x="552" 
d="M501 280v-28h-380c0 -118 58 -202 159 -202c77 0 118 33 155 108l55 -27c-52 -103 -117 -139 -210 -139c-134 0 -224 110 -224 260s90 260 224 260c130 0 221 -93 221 -232zM280 454c-84 0 -138 -62 -155 -144h312c-12 87 -66 144 -157 144zM258 700l70 -140h-49
l-114 140h93z" />
    <glyph glyph-name="uni0451" unicode="&#x451;" horiz-adv-x="552" 
d="M501 280v-28h-380c0 -118 58 -202 159 -202c77 0 118 33 155 108l55 -27c-52 -103 -117 -139 -210 -139c-134 0 -224 110 -224 260s90 260 224 260c130 0 221 -93 221 -232zM280 454c-84 0 -138 -62 -155 -144h312c-12 87 -66 144 -157 144zM156 650c0 28 21 50 49 50
s49 -22 49 -50c0 -27 -21 -48 -49 -48s-49 21 -49 48zM310 650c0 28 22 50 48 50c28 0 50 -22 50 -50c0 -27 -22 -48 -50 -48c-26 0 -48 21 -48 48z" />
    <glyph glyph-name="uni0452" unicode="&#x452;" horiz-adv-x="585" 
d="M23 578v56h73v74h62v-74h135v-56h-135v-184c35 81 111 118 180 118c99 0 157 -60 157 -166v-410c0 -89 -45 -135 -125 -148l-14 58c53 15 77 38 77 99v393c0 73 -36 116 -105 116c-92 0 -170 -93 -170 -239v-215h-62v578h-73z" />
    <glyph glyph-name="uni0453" unicode="&#x453;" horiz-adv-x="427" 
d="M96 0v504h310v-58h-246v-446h-64zM195 560l70 140h93l-114 -140h-49z" />
    <glyph glyph-name="uni0454" unicode="&#x454;" horiz-adv-x="523" 
d="M363 281v-58h-241c7 -96 50 -173 148 -173c75 0 122 37 149 103l58 -26c-40 -89 -111 -135 -205 -135c-148 0 -216 128 -216 260s68 260 216 260c94 0 165 -46 205 -135l-58 -26c-27 66 -74 103 -149 103c-98 0 -141 -77 -148 -173h241z" />
    <glyph glyph-name="uni0455" unicode="&#x455;" horiz-adv-x="450" 
d="M230 512c64 0 106 -30 140 -78l-44 -38c-31 41 -59 58 -99 58c-43 0 -74 -30 -74 -76c0 -102 239 -82 239 -228c0 -97 -60 -158 -156 -158c-107 0 -162 72 -182 138l55 29c22 -61 53 -109 127 -109c59 0 91 35 91 90c0 115 -238 79 -238 237c0 81 61 135 141 135z" />
    <glyph glyph-name="uni0456" unicode="&#x456;" horiz-adv-x="280" 
d="M90 649c0 29 22 51 51 51s51 -22 51 -51s-22 -51 -51 -51s-51 22 -51 51zM110 504h62v-504h-62v504z" />
    <glyph glyph-name="uni0457" unicode="&#x457;" horiz-adv-x="280" 
d="M108 504h62v-504h-62v504zM14 650c0 28 21 50 49 50s49 -22 49 -50c0 -27 -21 -48 -49 -48s-49 21 -49 48zM168 650c0 28 22 50 48 50c28 0 50 -22 50 -50c0 -27 -22 -48 -50 -48c-26 0 -48 21 -48 48z" />
    <glyph glyph-name="uni0458" unicode="&#x458;" horiz-adv-x="280" 
d="M110 504h62v-568c0 -89 -45 -135 -125 -148l-14 58c53 15 77 38 77 99v559zM90 649c0 29 22 51 51 51s51 -22 51 -51s-22 -51 -51 -51s-51 22 -51 51z" />
    <glyph glyph-name="uni0459" unicode="&#x459;" horiz-adv-x="785" 
d="M145 151l35 353h273v-192h108c110 0 168 -60 168 -156s-58 -156 -168 -156h-170v446h-153l-32 -310c-10 -93 -53 -136 -160 -136v58c73 0 93 29 99 93zM534 254h-81v-196h81c89 0 126 30 126 98c0 67 -37 98 -126 98z" />
    <glyph glyph-name="uni045A" unicode="&#x45a;" horiz-adv-x="803" 
d="M404 504h62v-192h113c110 0 168 -60 168 -156s-58 -156 -168 -156h-175v254h-246v-254h-62v504h62v-192h246v192zM552 254h-86v-196h86c89 0 126 30 126 98c0 67 -37 98 -126 98z" />
    <glyph glyph-name="uni045B" unicode="&#x45b;" horiz-adv-x="585" 
d="M23 578v56h73v74h62v-74h135v-56h-135v-184c35 81 111 118 180 118c99 0 157 -60 157 -166v-346h-62v338c0 73 -36 116 -105 116c-92 0 -170 -93 -170 -239v-215h-62v578h-73z" />
    <glyph glyph-name="uni045C" unicode="&#x45c;" horiz-adv-x="482" 
d="M96 504h62v-223l211 223h78l-218 -231l236 -273h-79l-228 265v-265h-62v504zM203 560l70 140h93l-114 -140h-49z" />
    <glyph glyph-name="uni045D" unicode="&#x45d;" horiz-adv-x="586" 
d="M96 504h62v-406l266 406h66v-504h-62v406l-266 -406h-66v504zM270 700l70 -140h-49l-114 140h93z" />
    <glyph glyph-name="uni045E" unicode="&#x45e;" horiz-adv-x="452" 
d="M372 504h65l-250 -708h-62l73 207l-181 501h65l150 -408zM286 700h51c0 -64 -38 -109 -105 -109c-65 0 -105 45 -105 109h51c0 -34 18 -59 54 -59c38 0 54 25 54 59z" />
    <glyph glyph-name="uni045F" unicode="&#x45f;" horiz-adv-x="562" 
d="M96 0v504h62v-446h246v446h62v-504h-154v-114h-62v114h-154z" />
    <glyph glyph-name="arrow.l" horiz-adv-x="643" 
d="M275 125l-226 225l226 225l41 -42l-151 -154h419v-58h-419l151 -154z" />
    <glyph glyph-name="arrow.r" horiz-adv-x="643" 
d="M594 350l-226 -225l-41 42l151 154h-419v58h419l-151 154l41 42z" />
    <glyph glyph-name="arrow.u" horiz-adv-x="630" 
d="M90 392l225 226l225 -226l-42 -41l-154 151v-420h-58v420l-154 -151z" />
    <glyph glyph-name="arrow.d" horiz-adv-x="630" 
d="M315 82l-225 226l42 41l154 -151v420h58v-420l154 151l42 -41z" />
    <glyph glyph-name="arrow.ul" horiz-adv-x="634" 
d="M115 231v319h318v-62h-215l296 -295l-43 -43l-295 296v-215h-61z" />
    <glyph glyph-name="arrow.ur" horiz-adv-x="634" 
d="M519 550v-319h-61v215l-295 -296l-43 43l296 295h-215v62h318z" />
    <glyph glyph-name="arrow.dl" horiz-adv-x="634" 
d="M115 150v319h61v-215l295 296l43 -43l-296 -295h215v-62h-318z" />
    <glyph glyph-name="arrow.dr" horiz-adv-x="634" 
d="M519 469v-319h-318v62h215l-296 295l43 43l295 -296v215h61z" />
    <glyph glyph-name="arrow.l.xl" horiz-adv-x="793" 
d="M275 125l-226 225l226 225l41 -42l-151 -154h569v-58h-569l151 -154z" />
    <glyph glyph-name="arrow.r.xl" horiz-adv-x="793" 
d="M744 350l-226 -225l-41 42l151 154h-569v58h569l-151 154l41 42z" />
    <glyph glyph-name="arrow.u.xl" horiz-adv-x="630" 
d="M315 692l225 -226l-42 -41l-154 151v-568h-58v568l-154 -151l-42 41z" />
    <glyph glyph-name="arrow.d.xl" horiz-adv-x="630" 
d="M540 235l-225 -226l-225 226l42 41l154 -151v569h58v-569l154 151z" />
    <glyph glyph-name="arrow.ul.xl" horiz-adv-x="740" 
d="M115 277v319h319v-62h-214l400 -400l-43 -43l-401 400v-214h-61z" />
    <glyph glyph-name="arrow.ur.xl" horiz-adv-x="740" 
d="M625 596v-319h-61v214l-401 -400l-43 43l400 400h-214v62h319z" />
    <glyph glyph-name="arrow.dl.xl" horiz-adv-x="740" 
d="M115 91v319h61v-214l401 400l43 -43l-400 -400h214v-62h-319z" />
    <glyph glyph-name="arrow.dr.xl" horiz-adv-x="740" 
d="M625 410v-319h-319v62h214l-400 400l43 43l401 -400v214h61z" />
    <glyph glyph-name="dcaron.alt" horiz-adv-x="760" 
d="M440 708h62v-708h-62v66c-26 -39 -93 -74 -159 -74c-147 0 -225 116 -225 260s78 260 225 260c54 0 122 -31 159 -79v275zM121 252c0 -114 56 -202 163 -202s162 88 162 202c0 112 -55 202 -162 202s-163 -90 -163 -202zM643 481l-13 15c33 23 61 63 61 97
c-35 9 -53 30 -53 59c0 31 23 56 57 56c33 0 60 -27 60 -64c0 -65 -54 -125 -112 -163z" />
    <glyph glyph-name="uni0123.alt" horiz-adv-x="491" 
d="M91 343c0 102 75 169 171 169c32 0 62 -9 87 -23l90 51l29 -53l-70 -39c22 -28 35 -63 35 -105c0 -103 -75 -169 -171 -169c-35 0 -67 8 -94 24c-30 -13 -41 -32 -41 -56c0 -36 30 -48 62 -48h130c87 0 151 -39 151 -132c0 -124 -90 -174 -207 -174
c-128 0 -208 62 -208 166c0 49 24 85 52 106c-25 15 -40 41 -40 82c0 42 27 74 62 90c-23 28 -38 67 -38 111zM312 40h-103c-18 0 -34 1 -49 3c-34 -22 -45 -57 -45 -91c0 -65 48 -108 148 -108c99 0 147 48 147 110c0 63 -39 86 -98 86zM153 343c0 -73 51 -115 109 -115
s109 42 109 115s-51 115 -109 115s-109 -42 -109 -115zM326 789l13 -15c-33 -23 -61 -63 -61 -97c35 -9 53 -30 53 -59c0 -31 -23 -56 -57 -56c-33 0 -60 27 -60 64c0 65 54 125 112 163z" />
    <glyph glyph-name="lcaron.alt" horiz-adv-x="425" 
d="M94 708h62v-708h-62v708zM292 481l-13 15c33 23 61 63 61 97c-35 9 -53 30 -53 59c0 31 23 56 57 56c33 0 60 -27 60 -64c0 -65 -54 -125 -112 -163z" />
    <glyph glyph-name="napostrophe.alt" horiz-adv-x="661" 
d="M591 346v-346h-62v338c0 73 -33 116 -103 116c-92 0 -163 -90 -163 -233v-221h-62v504h62v-105c34 66 100 113 173 113c95 0 155 -60 155 -166zM81 481l-13 15c33 23 61 63 61 97c-35 9 -53 30 -53 59c0 31 23 56 57 56c33 0 60 -27 60 -64c0 -65 -54 -125 -112 -163z
" />
    <glyph glyph-name="tcaron.alt" horiz-adv-x="558" 
d="M27 446v58h89v163l62 41v-204h136v-58h-136v-313c0 -57 29 -83 72 -83c20 0 44 4 63 16l17 -56c-24 -13 -57 -18 -88 -18c-73 0 -126 45 -126 151v303h-89zM433 481l-13 15c33 23 61 63 61 97c-35 9 -53 30 -53 59c0 31 23 56 57 56c33 0 60 -27 60 -64
c0 -65 -54 -125 -112 -163z" />
    <glyph glyph-name="nbspace" unicode="&#xa0;" horiz-adv-x="252" 
 />
    </font>
</defs>
</svg>
